<svg xmlns="http://www.w3.org/2000/svg" viewBox="0 0 505.19 151.56">
  <defs>
    <style>
      .cls-1 {
        fill: #fbfbfb;
      }
    </style>
  </defs>
  <g id="Layer_2" data-name="Layer 2">
    <g id="Layer_1-2" data-name="Layer 1">
      <g>
        <path class="cls-1" d="M47.85,32.76a18.12,18.12,0,0,0-6.1-5.65,17.16,17.16,0,0,0-8.93-2.32,22.41,22.41,0,0,0-9.43,1.67,20.63,20.63,0,0,0-7.13,5,21.68,21.68,0,0,0-4.5,7.64,28.92,28.92,0,0,0-1.54,9.57,28.84,28.84,0,0,0,1.54,9.57,21.68,21.68,0,0,0,4.5,7.64,20.63,20.63,0,0,0,7.13,5,22.11,22.11,0,0,0,9.43,1.67,17.25,17.25,0,0,0,8.93-2.31,18.12,18.12,0,0,0,6.1-5.65l6.94,5.26a28.46,28.46,0,0,1-10.15,7.77,30.56,30.56,0,0,1-11.82,2.64A33.67,33.67,0,0,1,19.6,78,29.3,29.3,0,0,1,9.51,71.42,28.26,28.26,0,0,1,3.16,61.33,35.73,35.73,0,0,1,1,48.68,35.81,35.81,0,0,1,3.16,36,28.21,28.21,0,0,1,9.51,26,29.32,29.32,0,0,1,19.6,19.33a33.49,33.49,0,0,1,13.22-2.24,30.37,30.37,0,0,1,11.82,2.63,28.57,28.57,0,0,1,10.15,7.77Z"/>
        <path class="cls-1" d="M81.5,72.57a7,7,0,0,1-1.92,4.82,7,7,0,0,1-10,0,7,7,0,0,1,0-9.64,7,7,0,0,1,10,0A7,7,0,0,1,81.5,72.57Z"/>
        <path class="cls-1" d="M102.56,37.38q0-4-.19-8.09c-.13-2.74-.23-6.3-.32-10.66h8.35V29.8h.26a18.61,18.61,0,0,1,2.56-4.69,20.4,20.4,0,0,1,4-4,19.79,19.79,0,0,1,5.52-2.89,21.66,21.66,0,0,1,7.13-1.09,22.7,22.7,0,0,1,6.29.77l-1.67,8.35a14.17,14.17,0,0,0-4.88-.65,17.41,17.41,0,0,0-8.34,1.87,18.33,18.33,0,0,0-5.78,4.75,19.53,19.53,0,0,0-3.41,6.23A20.8,20.8,0,0,0,111,44.83V78.74h-8.48Z"/>
        <path class="cls-1" d="M148,72.57a7,7,0,0,1-1.93,4.82,7,7,0,0,1-10,0,7,7,0,0,1,0-9.64,7,7,0,0,1,10,0A7,7,0,0,1,148,72.57Z"/>
        <path class="cls-1" d="M174.1,51a25.8,25.8,0,0,0,2.18,8.48A22.24,22.24,0,0,0,187.84,70.9a20.65,20.65,0,0,0,8.35,1.67,21.38,21.38,0,0,0,11.75-3.15,23.49,23.49,0,0,0,7.52-7.25L222,67.56a32.63,32.63,0,0,1-11.88,9.76,33.24,33.24,0,0,1-13.94,3A31.85,31.85,0,0,1,183.8,77.9,29.07,29.07,0,0,1,174,71.29a31.34,31.34,0,0,1-6.48-10,32.67,32.67,0,0,1-2.38-12.59,33.68,33.68,0,0,1,2.31-12.59,30.25,30.25,0,0,1,6.43-10,29.37,29.37,0,0,1,9.63-6.62,29.94,29.94,0,0,1,11.94-2.37,29.21,29.21,0,0,1,12.2,2.44A27,27,0,0,1,216.68,26a27.72,27.72,0,0,1,5.58,9.51,34.51,34.51,0,0,1,1.93,11.62V51Zm40.84-6.93q0-8.61-5.13-13.94t-14.39-5.33a20.51,20.51,0,0,0-8,1.61,22.25,22.25,0,0,0-6.74,4.3,21.69,21.69,0,0,0-4.63,6.17,16,16,0,0,0-1.73,7.19Z"/>
        <path class="cls-1" d="M255.14,72.57a7,7,0,0,1-1.92,4.82,7,7,0,0,1-10,0,7,7,0,0,1,0-9.64,7,7,0,0,1,10,0A7,7,0,0,1,255.14,72.57Z"/>
        <path class="cls-1" d="M365.45,72.57a7,7,0,0,1-1.93,4.82,7,7,0,0,1-10,0,7,7,0,0,1,0-9.64,7,7,0,0,1,10,0A7,7,0,0,1,365.45,72.57Z"/>
        <path class="cls-1" d="M416.7,26.33H399.36V61.78a19.17,19.17,0,0,0,.64,5.46,7.83,7.83,0,0,0,1.8,3.28,6.19,6.19,0,0,0,2.76,1.6,13,13,0,0,0,3.53.45,16.67,16.67,0,0,0,4.49-.64,20.93,20.93,0,0,0,4.24-1.67l.39,7.83a27.17,27.17,0,0,1-11.43,2.19,21.73,21.73,0,0,1-5.07-.64,11.94,11.94,0,0,1-4.82-2.45,13.26,13.26,0,0,1-3.6-4.88,19.61,19.61,0,0,1-1.41-8.09V26.33H378.17v-7.7h12.71V1.68h8.48v17H416.7Z"/>
        <path class="cls-1" d="M453.42,51a25.81,25.81,0,0,0,2.19,8.48A22.15,22.15,0,0,0,467.17,70.9a20.64,20.64,0,0,0,8.34,1.67,21.44,21.44,0,0,0,11.76-3.15,23.45,23.45,0,0,0,7.51-7.25l6.55,5.39a32.63,32.63,0,0,1-11.88,9.76,33.24,33.24,0,0,1-13.94,3,31.85,31.85,0,0,1-12.39-2.38,29.07,29.07,0,0,1-9.83-6.61,31.34,31.34,0,0,1-6.48-10,32.67,32.67,0,0,1-2.38-12.59,33.68,33.68,0,0,1,2.31-12.59,30.57,30.57,0,0,1,6.43-10,29.58,29.58,0,0,1,9.63-6.62,29.94,29.94,0,0,1,11.94-2.37,29.21,29.21,0,0,1,12.2,2.44A27,27,0,0,1,496,26a27.9,27.9,0,0,1,5.59,9.51,34.76,34.76,0,0,1,1.92,11.62V51Zm40.85-6.93q0-8.61-5.14-13.94t-14.39-5.33a20.51,20.51,0,0,0-8,1.61A22.38,22.38,0,0,0,460,30.7a21.47,21.47,0,0,0-4.62,6.17,15.84,15.84,0,0,0-1.74,7.19Z"/>
        <path class="cls-1" d="M3.89,135H21.74v3.57H0V100.29H3.89Z"/>
        <path class="cls-1" d="M42.72,123.06v-.65q0-6.54-6.49-6.54a11.19,11.19,0,0,0-7.73,3l-2.16-2.54q3.57-3.67,10.7-3.68a11.59,11.59,0,0,1,3.54.54,8,8,0,0,1,3,1.65,8.11,8.11,0,0,1,2,2.79,9.55,9.55,0,0,1,.76,4v11.3c0,1,.05,2,.14,3.06s.19,1.93.29,2.62H43.26a18.6,18.6,0,0,1-.24-2c-.06-.72-.08-1.43-.08-2.11h-.11a9.76,9.76,0,0,1-3.7,3.65,11.25,11.25,0,0,1-5.22,1.11,11.76,11.76,0,0,1-3.25-.46,8.39,8.39,0,0,1-2.78-1.41A7.18,7.18,0,0,1,25.93,135a6.77,6.77,0,0,1-.73-3.22A6.9,6.9,0,0,1,26.8,127a9.63,9.63,0,0,1,4-2.62,19.74,19.74,0,0,1,5.13-1.09q2.73-.21,5-.21ZM40.88,126c-.9,0-2,0-3.38.13a19.63,19.63,0,0,0-3.89.65,8.71,8.71,0,0,0-3.19,1.6,3.61,3.61,0,0,0-1.33,3,4.1,4.1,0,0,0,1.9,3.6,5.68,5.68,0,0,0,1.92.81A9.53,9.53,0,0,0,35,136a8,8,0,0,0,3.38-.65,6.91,6.91,0,0,0,2.41-1.75,7.09,7.09,0,0,0,1.43-2.6,10.5,10.5,0,0,0,.46-3.16V126Z"/>
        <path class="cls-1" d="M55.32,97.69h3.57v19.8H59a9.1,9.1,0,0,1,2.06-2.22,12.57,12.57,0,0,1,2.48-1.51,11.82,11.82,0,0,1,2.68-.87,13.64,13.64,0,0,1,2.62-.27,14.47,14.47,0,0,1,5.44,1,12.63,12.63,0,0,1,7,7,14.54,14.54,0,0,1,0,10.6,12.61,12.61,0,0,1-7,7,14.47,14.47,0,0,1-5.44,1,13.64,13.64,0,0,1-2.62-.27,11.82,11.82,0,0,1-2.68-.87,12.57,12.57,0,0,1-2.48-1.51A9.48,9.48,0,0,1,59,134.36h-.11v4.22H55.32Zm23.09,28.23a11.32,11.32,0,0,0-.67-3.94,9.41,9.41,0,0,0-1.92-3.19,9,9,0,0,0-3-2.14,9.71,9.71,0,0,0-4-.78,10.23,10.23,0,0,0-4,.78,9.94,9.94,0,0,0-3.19,2.14A9.4,9.4,0,0,0,59.49,122a10.62,10.62,0,0,0,0,7.89,9.4,9.4,0,0,0,2.11,3.19,9.94,9.94,0,0,0,3.19,2.14,10.23,10.23,0,0,0,4,.78,9.71,9.71,0,0,0,4-.78,9,9,0,0,0,3-2.14,9.41,9.41,0,0,0,1.92-3.19A11.34,11.34,0,0,0,78.41,125.92Z"/>
        <path class="cls-1" d="M114.7,125.92a13.93,13.93,0,0,1-1,5.3,12.61,12.61,0,0,1-7,7,14.47,14.47,0,0,1-5.44,1,14.31,14.31,0,0,1-5.38-1,12.61,12.61,0,0,1-7-7,14.55,14.55,0,0,1,0-10.6,12.63,12.63,0,0,1,7-7,14.31,14.31,0,0,1,5.38-1,14.47,14.47,0,0,1,5.44,1,12.63,12.63,0,0,1,7,7A14,14,0,0,1,114.7,125.92Zm-3.9,0a11.32,11.32,0,0,0-.67-3.94,9.41,9.41,0,0,0-1.92-3.19,9,9,0,0,0-3-2.14,10.52,10.52,0,0,0-7.95,0,8.75,8.75,0,0,0-3,2.14A9.67,9.67,0,0,0,92.39,122a11.95,11.95,0,0,0,0,7.89,9.67,9.67,0,0,0,1.89,3.19,8.75,8.75,0,0,0,3,2.14,10.52,10.52,0,0,0,7.95,0,9,9,0,0,0,3-2.14,9.41,9.41,0,0,0,1.92-3.19A11.34,11.34,0,0,0,110.8,125.92Z"/>
        <path class="cls-1" d="M122.32,121.17c0-1.12,0-2.26-.08-3.41s-.1-2.65-.13-4.49h3.51V118h.11a7.79,7.79,0,0,1,1.08-2,8.35,8.35,0,0,1,1.71-1.7,8.24,8.24,0,0,1,2.32-1.22,9.27,9.27,0,0,1,3-.46,9.55,9.55,0,0,1,2.65.33l-.7,3.51a6,6,0,0,0-2.06-.27,7.34,7.34,0,0,0-3.51.78,7.87,7.87,0,0,0-2.44,2,8.5,8.5,0,0,0-1.43,2.62,8.9,8.9,0,0,0-.46,2.7v14.28h-3.57Z"/>
        <path class="cls-1" d="M156.88,123.06v-.65q0-6.54-6.49-6.54a11.16,11.16,0,0,0-7.73,3l-2.17-2.54q3.57-3.67,10.71-3.68a11.64,11.64,0,0,1,3.54.54,8,8,0,0,1,2.95,1.65,8.24,8.24,0,0,1,2,2.79,9.71,9.71,0,0,1,.76,4v11.3c0,1,0,2,.13,3.06s.19,1.93.3,2.62h-3.46a18.6,18.6,0,0,1-.24-2c-.06-.72-.09-1.43-.09-2.11H157a9.78,9.78,0,0,1-3.71,3.65,11.19,11.19,0,0,1-5.22,1.11,11.64,11.64,0,0,1-3.24-.46,8.34,8.34,0,0,1-2.79-1.41,7,7,0,0,1-1.94-2.32,6.77,6.77,0,0,1-.73-3.22A6.94,6.94,0,0,1,141,127a9.76,9.76,0,0,1,4-2.62,19.91,19.91,0,0,1,5.14-1.09c1.82-.14,3.49-.21,5-.21ZM155,126c-.9,0-2,0-3.38.13a19.63,19.63,0,0,0-3.89.65,8.63,8.63,0,0,0-3.19,1.6,3.61,3.61,0,0,0-1.33,3,4.26,4.26,0,0,0,.51,2.14,4.48,4.48,0,0,0,1.38,1.46,5.85,5.85,0,0,0,1.92.81,9.68,9.68,0,0,0,2.14.24,8,8,0,0,0,3.38-.65,7,7,0,0,0,2.41-1.75,7.24,7.24,0,0,0,1.43-2.6,10.83,10.83,0,0,0,.46-3.16V126Z"/>
        <path class="cls-1" d="M182.56,116.52h-7.3v14.92a8.14,8.14,0,0,0,.27,2.3,3.36,3.36,0,0,0,.76,1.38,2.61,2.61,0,0,0,1.16.67,5.38,5.38,0,0,0,1.49.19,7.07,7.07,0,0,0,1.89-.27,8.66,8.66,0,0,0,1.79-.7l.16,3.3a11.5,11.5,0,0,1-4.81.92,9,9,0,0,1-2.14-.27,5.15,5.15,0,0,1-2-1,5.68,5.68,0,0,1-1.51-2.05,8.24,8.24,0,0,1-.6-3.41v-16h-5.35v-3.25h5.35v-7.14h3.57v7.14h7.3Z"/>
        <path class="cls-1" d="M213.76,125.92a13.74,13.74,0,0,1-1,5.3,12.56,12.56,0,0,1-2.78,4.22,12.76,12.76,0,0,1-4.25,2.79,14.42,14.42,0,0,1-5.43,1,14.27,14.27,0,0,1-5.38-1,12.76,12.76,0,0,1-4.25-2.79,12.56,12.56,0,0,1-2.78-4.22,14.55,14.55,0,0,1,0-10.6,12.62,12.62,0,0,1,2.78-4.21,12.76,12.76,0,0,1,4.25-2.79,14.27,14.27,0,0,1,5.38-1,14.42,14.42,0,0,1,5.43,1,12.76,12.76,0,0,1,4.25,2.79,12.62,12.62,0,0,1,2.78,4.21A13.78,13.78,0,0,1,213.76,125.92Zm-3.89,0a11.32,11.32,0,0,0-.67-3.94,9.6,9.6,0,0,0-1.93-3.19,8.92,8.92,0,0,0-3-2.14,10.52,10.52,0,0,0-8,0,8.71,8.71,0,0,0-3,2.14,9.67,9.67,0,0,0-1.89,3.19,11.78,11.78,0,0,0,0,7.89,9.67,9.67,0,0,0,1.89,3.19,8.71,8.71,0,0,0,3,2.14,10.52,10.52,0,0,0,8,0,8.92,8.92,0,0,0,3-2.14,9.6,9.6,0,0,0,1.93-3.19A11.34,11.34,0,0,0,209.87,125.92Z"/>
        <path class="cls-1" d="M221.39,121.17c0-1.12,0-2.26-.08-3.41s-.1-2.65-.14-4.49h3.52V118h.11a7.79,7.79,0,0,1,1.08-2,8.34,8.34,0,0,1,4-2.92,9.27,9.27,0,0,1,3-.46,9.55,9.55,0,0,1,2.65.33l-.71,3.51a6,6,0,0,0-2-.27,7.41,7.41,0,0,0-3.52.78,7.83,7.83,0,0,0-2.43,2,8.11,8.11,0,0,0-1.43,2.62,8.6,8.6,0,0,0-.46,2.7v14.28h-3.57Z"/>
        <path class="cls-1" d="M249.13,134.2l7.73-20.93h4.33l-12.65,31.91a13.26,13.26,0,0,1-2.9,4.65,6.9,6.9,0,0,1-5,1.73q-.81,0-1.65-.06a6.26,6.26,0,0,1-1.65-.32l.38-3.46a5.81,5.81,0,0,0,2.7.59,3.82,3.82,0,0,0,3-1.19,10.55,10.55,0,0,0,1.89-3.35l1.84-4.87-10.39-25.63h4.49Z"/>
        <path class="cls-1" d="M280.56,100.29h11.13c3.9,0,7,.85,9.23,2.54s3.38,4.26,3.38,7.68-1.13,6-3.38,7.71-5.33,2.57-9.23,2.57h-7.24v17.79h-3.89Zm3.89,16.93h6.27a15.63,15.63,0,0,0,4.41-.54,8.05,8.05,0,0,0,2.89-1.44,5.24,5.24,0,0,0,1.57-2.1,7,7,0,0,0,.49-2.63,6.75,6.75,0,0,0-.49-2.57,5.47,5.47,0,0,0-1.57-2.13,7.6,7.6,0,0,0-2.89-1.44,16.5,16.5,0,0,0-4.41-.51h-6.27Z"/>
        <path class="cls-1" d="M311.43,121.17c0-1.12,0-2.26-.08-3.41s-.1-2.65-.13-4.49h3.51V118h.11a7.79,7.79,0,0,1,1.08-2,8.56,8.56,0,0,1,1.7-1.7,8.44,8.44,0,0,1,2.33-1.22,9.27,9.27,0,0,1,3-.46,9.55,9.55,0,0,1,2.65.33l-.7,3.51a6.06,6.06,0,0,0-2.06-.27,7.34,7.34,0,0,0-3.51.78,7.76,7.76,0,0,0-2.44,2,8.5,8.5,0,0,0-1.43,2.62,8.6,8.6,0,0,0-.46,2.7v14.28h-3.57Z"/>
        <path class="cls-1" d="M335,103.54a2.39,2.39,0,0,1-.81,1.86,2.55,2.55,0,0,1-3.57,0,2.55,2.55,0,0,1,0-3.73,2.55,2.55,0,0,1,3.57,0A2.41,2.41,0,0,1,335,103.54Zm-.81,35h-3.57V113.27h3.57Z"/>
        <path class="cls-1" d="M346.91,113.27c.07.69.11,1.36.13,2s0,1.34,0,2h.11a8.2,8.2,0,0,1,1.51-1.9,9.9,9.9,0,0,1,2.06-1.48,11,11,0,0,1,2.4-1,9.63,9.63,0,0,1,2.52-.35q4.86,0,7.19,2.57c1.55,1.71,2.32,4.16,2.32,7.33v16.06h-3.56v-14a11.91,11.91,0,0,0-1.46-6.46c-1-1.5-2.78-2.24-5.41-2.24a14.14,14.14,0,0,0-1.52.21,6.64,6.64,0,0,0-2.62,1.19,8.56,8.56,0,0,0-2.46,2.92,11.25,11.25,0,0,0-1.08,5.41v13H343.5V118.84c0-.68,0-1.55-.08-2.6s-.12-2-.19-3Z"/>
        <path class="cls-1" d="M392.76,119.22a7.59,7.59,0,0,0-2.57-2.38,7.24,7.24,0,0,0-3.76-1,9.22,9.22,0,0,0-4,.7,8.67,8.67,0,0,0-3,2.11,9,9,0,0,0-1.89,3.22,12.79,12.79,0,0,0,0,8,9,9,0,0,0,1.89,3.22,8.81,8.81,0,0,0,3,2.11,9.37,9.37,0,0,0,4,.7,7.24,7.24,0,0,0,3.76-1,7.59,7.59,0,0,0,2.57-2.38l2.92,2.22a12,12,0,0,1-4.27,3.27,13,13,0,0,1-5,1.11,14.13,14.13,0,0,1-5.56-.95,12.35,12.35,0,0,1-4.25-2.78,12.06,12.06,0,0,1-2.68-4.25,15.87,15.87,0,0,1,0-10.65,12.06,12.06,0,0,1,2.68-4.25,12.21,12.21,0,0,1,4.25-2.78,14.13,14.13,0,0,1,5.56-.95,13,13,0,0,1,5,1.11,11.9,11.9,0,0,1,4.27,3.27Z"/>
        <path class="cls-1" d="M403.63,126.9a11.06,11.06,0,0,0,.92,3.57,9.32,9.32,0,0,0,4.87,4.81,8.7,8.7,0,0,0,3.51.7,9.06,9.06,0,0,0,4.95-1.32,10,10,0,0,0,3.17-3.06l2.75,2.27a13.7,13.7,0,0,1-5,4.11,14,14,0,0,1-5.87,1.25,13.55,13.55,0,0,1-5.21-1,12.2,12.2,0,0,1-4.14-2.79,12.9,12.9,0,0,1-2.73-4.22,13.74,13.74,0,0,1-1-5.3,14.15,14.15,0,0,1,1-5.3,12.89,12.89,0,0,1,2.7-4.21,12.58,12.58,0,0,1,4.06-2.79,12.72,12.72,0,0,1,5-1,12.29,12.29,0,0,1,5.14,1,11.32,11.32,0,0,1,3.81,2.73,11.68,11.68,0,0,1,2.35,4,14.6,14.6,0,0,1,.81,4.9v1.62Zm17.2-2.92a8.11,8.11,0,0,0-2.16-5.87,8,8,0,0,0-6.06-2.24,8.64,8.64,0,0,0-3.35.67,9.44,9.44,0,0,0-2.84,1.81,9.29,9.29,0,0,0-1.95,2.6,6.63,6.63,0,0,0-.73,3Z"/>
        <path class="cls-1" d="M445.06,116.52h-7.3v14.92a8.14,8.14,0,0,0,.27,2.3,3.35,3.35,0,0,0,.75,1.38,2.59,2.59,0,0,0,1.17.67,5.31,5.31,0,0,0,1.48.19,7.09,7.09,0,0,0,1.9-.27,8.57,8.57,0,0,0,1.78-.7l.16,3.3a11.5,11.5,0,0,1-4.81.92,9.09,9.09,0,0,1-2.14-.27,5.11,5.11,0,0,1-2-1,5.7,5.7,0,0,1-1.52-2.05,8.42,8.42,0,0,1-.59-3.41v-16h-5.36v-3.25h5.36v-7.14h3.57v7.14h7.3Z"/>
        <path class="cls-1" d="M476.26,125.92a13.93,13.93,0,0,1-1,5.3,12.61,12.61,0,0,1-7,7,14.47,14.47,0,0,1-5.44,1,14.31,14.31,0,0,1-5.38-1,12.61,12.61,0,0,1-7-7,14.54,14.54,0,0,1,0-10.6,12.63,12.63,0,0,1,7-7,14.31,14.31,0,0,1,5.38-1,14.47,14.47,0,0,1,5.44,1,12.63,12.63,0,0,1,7,7A14,14,0,0,1,476.26,125.92Zm-3.9,0a11.32,11.32,0,0,0-.67-3.94,9.41,9.41,0,0,0-1.92-3.19,9,9,0,0,0-3-2.14,10.52,10.52,0,0,0-7.95,0,8.75,8.75,0,0,0-3,2.14A9.67,9.67,0,0,0,454,122a11.78,11.78,0,0,0,0,7.89,9.67,9.67,0,0,0,1.89,3.19,8.75,8.75,0,0,0,3,2.14,10.52,10.52,0,0,0,7.95,0,9,9,0,0,0,3-2.14,9.41,9.41,0,0,0,1.92-3.19A11.34,11.34,0,0,0,472.36,125.92Z"/>
        <path class="cls-1" d="M486.91,113.27c.07.69.12,1.36.14,2s0,1.34,0,2h.11a8.47,8.47,0,0,1,1.51-1.9,10.17,10.17,0,0,1,2.06-1.48,11.41,11.41,0,0,1,2.4-1,9.63,9.63,0,0,1,2.52-.35q4.86,0,7.19,2.57c1.55,1.71,2.33,4.16,2.33,7.33v16.06h-3.57v-14a11.91,11.91,0,0,0-1.46-6.46c-1-1.5-2.78-2.24-5.41-2.24a14.1,14.1,0,0,0-1.51.21,6.68,6.68,0,0,0-2.63,1.19,8.56,8.56,0,0,0-2.46,2.92,11.25,11.25,0,0,0-1.08,5.41v13H483.5V118.84c0-.68,0-1.55-.08-2.6s-.12-2-.19-3Z"/>
        <polygon class="cls-1" points="339.82 78.59 330.13 78.59 302.19 13.51 307.05 2.26 339.82 78.59"/>
        <polygon class="cls-1" points="275.19 49.04 315.5 49.04 319.33 57.94 271.34 57.94 275.19 49.04"/>
        <polygon class="cls-1" points="275.96 47.26 296.39 0 306.08 0 306.08 0.01 285.67 47.26 275.96 47.26"/>
        <polygon class="cls-1" points="270.57 59.72 280.28 59.72 272.12 78.59 262.42 78.59 270.57 59.72"/>
      </g>
    </g>
  </g>
</svg>
