<svg xmlns="http://www.w3.org/2000/svg" viewBox="0 0 132.5 81.67">
  <defs>
    <style>
      .cls-1 {
        fill: #fff;
      }
    </style>
  </defs>
  <g id="Layer_2" data-name="Layer 2">
    <g id="Layer_1-2" data-name="Layer 1">
      <path class="cls-1" d="M92.62,50.86h3.25L101.51,35H123.4l5.7,15.82h3.4V49.27L114.94.29h-4.55l-17.77,49v1.59Zm19.8-46.31h.14l9.75,27.31H102.59l9.83-27.31Z"/>
      <path class="cls-1" d="M83.23,50.86h3.18V49.27l-7.08-7.94a50.08,50.08,0,0,0,6.14-17.2v-1.3H82.22a46.68,46.68,0,0,1-5.06,16L62.78,22.69c-3.83-4.34-5.85-7.45-5.85-11.06,0-5.13,3.61-8.6,9.25-8.6,4,0,6.5,1.16,8.52,3h1.81V3.25C74,1.16,70.87,0,66.11,0,58.38,0,53.17,4.7,53.17,11.56a14.86,14.86,0,0,0,3.9,9.9c-6.28,2.38-11.77,6.93-11.77,15,0,8.24,5.78,14.67,16.9,14.67a19.38,19.38,0,0,0,15.18-6.79l5.85,6.5ZM62.64,48c-9.47,0-13.37-5.77-13.37-11.63,0-7.22,4.19-10.4,9.76-12.71L75.28,42.05a15.2,15.2,0,0,1-12.64,6Z"/>
      <path class="cls-1" d="M0,50.86H3.25L8.89,35H30.78l5.7,15.82h3.4V49.27L22.32.29H17.77L0,49.27v1.59ZM19.8,4.55h.14l9.75,27.31H10L19.8,4.55Z"/>
      <path class="cls-1" d="M37.69,81.63h.44l.76-2h2.94l.76,2h.46v-.2l-2.36-6.25h-.61l-2.39,6.25v.2Zm2.66-5.91h0l1.31,3.48H39l1.32-3.48Zm10.92,5.91h.45v-.19L50.1,78.58a1.55,1.55,0,0,0,1.23-1.65c0-1.29-.95-1.75-2.33-1.75H47.19v6.45h.52V78.71H49a5.54,5.54,0,0,0,.59,0l1.68,2.95Zm-3.56-6H49c1.08,0,1.83.32,1.83,1.37s-.69,1.36-1.83,1.36H47.71V75.58ZM58.4,81.67a3.16,3.16,0,0,0,2.24-.8v-.36h-.22a2.68,2.68,0,0,1-2,.76c-1.47,0-2.41-1-2.41-2.9s1.08-2.84,2.48-2.84a2.34,2.34,0,0,1,1.8.65h.24v-.4a3.14,3.14,0,0,0-5.05,2.6c0,2.13,1.2,3.29,2.93,3.29Zm6.92,0V78.5h3.93v3.13h.51V75.18h-.51V78.1H65.32V75.18H64.8v6.45Zm8.56,0h.44l.75-2H78l.77,2h.46v-.2l-2.36-6.25h-.61l-2.39,6.25v.2Zm2.66-5.91h0l1.31,3.48H75.22l1.32-3.48Zm6.81,5.91h4.19v-.41H83.87V78.5h2.67v-.4H83.87V75.59H87.4v-.41H83.35v6.45Zm10.83,0a3.27,3.27,0,1,0-3.06-3.27,3,3,0,0,0,3.06,3.27Zm0-.39c-1.43,0-2.53-1-2.53-2.87s1.1-2.88,2.53-2.88,2.5,1,2.5,2.88-1.1,2.87-2.5,2.87Zm11.32.35v-.41H102v-6h-.51v6.45Zm6.27,0a3.27,3.27,0,1,0-3.06-3.27,3,3,0,0,0,3.06,3.27Zm0-.39c-1.43,0-2.53-1-2.53-2.87s1.1-2.88,2.53-2.88,2.5,1,2.5,2.88-1.1,2.87-2.5,2.87Zm10,.39a4.4,4.4,0,0,0,2.24-.53V78.47h-2v.4h1.5v2a3.47,3.47,0,0,1-1.72.36c-1.63,0-2.58-1-2.58-2.9s1.12-2.84,2.62-2.84a2.47,2.47,0,0,1,1.74.54h.25v-.42a3.45,3.45,0,0,0-2-.51,3,3,0,0,0-3.17,3.24c0,2.19,1.21,3.29,3.13,3.29Zm8.6,0V78.91l2.16-3.53v-.2h-.41l-2,3.29h0l-2-3.29h-.44v.2l2.16,3.55v2.7Z"/>
      <path class="cls-1" d="M32.26,81.63h.42v-.2l-.95-1a6.18,6.18,0,0,0,.83-2.19v-.17h-.44a5.78,5.78,0,0,1-.68,2L29.51,78a2.16,2.16,0,0,1-.79-1.41A1.11,1.11,0,0,1,30,75.53a1.59,1.59,0,0,1,1.14.38h.24v-.36A2.13,2.13,0,0,0,30,75.14a1.54,1.54,0,0,0-1.74,1.47,1.86,1.86,0,0,0,.52,1.27,2.05,2.05,0,0,0-1.58,1.92c0,1,.78,1.87,2.27,1.87a2.66,2.66,0,0,0,2-.87l.79.83Zm-2.77-.36c-1.27,0-1.8-.74-1.8-1.48,0-.93.57-1.33,1.32-1.63l2.18,2.35a2.08,2.08,0,0,1-1.7.76Z"/>
      <path class="cls-1" d="M0,81.63H.44l.75-2H4.14l.76,2h.46v-.2L3,75.18H2.39L0,81.43v.2Zm2.66-5.91h0L4,79.2H1.34l1.32-3.48Zm10.92,5.91H14v-.19l-1.62-2.86a1.55,1.55,0,0,0,1.23-1.65c0-1.29-1-1.75-2.33-1.75H9.49v6.45H10V78.71h1.29a5.54,5.54,0,0,0,.59,0l1.68,2.95Zm-3.56-6h1.27c1.08,0,1.82.32,1.82,1.37s-.68,1.36-1.82,1.36H10V75.58Zm10,6v-6h2.21v-.4h-5v.4H19.5v6Z"/>
      <path class="cls-1" d="M107.6,70a3.27,3.27,0,1,0-3.06-3.26A3,3,0,0,0,107.6,70Zm0-.39c-1.43,0-2.52-1-2.52-2.87s1.09-2.88,2.52-2.88,2.51,1,2.51,2.88-1.1,2.87-2.51,2.87Zm7.79.35V67H118v-.4h-2.62V63.94h3.53v-.41h-4V70Z"/>
      <path class="cls-1" d="M14,70h1.8c2.25,0,3.43-1,3.43-3.24s-1.18-3.21-3.42-3.21H14V70Zm.51-.4V63.93h1.29c2,0,2.89.79,2.89,2.83s-.93,2.82-2.89,2.82Zm9,.4h4.18v-.4H24V66.86h2.67v-.41H24V63.94h3.53v-.41H23.5V70Zm8.34,0h.51v-2.7H33.6c1.5,0,2.41-.52,2.41-1.91s-.95-1.84-2.4-1.84H31.84V70Zm.51-6.05H33.6c1.16,0,1.89.35,1.89,1.46s-.67,1.49-1.89,1.49H32.35V63.93ZM39.11,70h.44l.75-2h2.94L44,70h.46v-.2l-2.36-6.25H41.5l-2.39,6.25V70Zm2.66-5.91h0l1.31,3.49H40.45l1.32-3.49ZM52.69,70h.45v-.19l-1.62-2.86a1.55,1.55,0,0,0,1.23-1.65c0-1.29-1-1.75-2.33-1.75H48.6V70h.53V67.06h1.29A5.54,5.54,0,0,0,51,67l1.68,3Zm-3.56-6.05H50.4c1.08,0,1.82.33,1.82,1.37s-.69,1.36-1.82,1.36H49.13V63.93Zm10,6.05V63.93h2.21v-.4h-5v.4h2.22V70Zm6.25,0h.48V64.12h0L68.28,70h.38L71,64.12h0V70h.53V63.53h-.79l-2.3,5.7h0l-2.31-5.7h-.8V70Zm10.87,0h4.18v-.4H76.77V66.86h2.67v-.41H76.77V63.94h3.54v-.41h-4V70Zm8.34,0h.48v-5.8h0L89,70h.5V63.53H89V69.1h0l-3.77-5.57H84.6V70Zm11.69,0V63.93h2.22v-.4h-5v.4h2.22V70Z"/>
    </g>
  </g>
</svg>
