<svg xmlns="http://www.w3.org/2000/svg" viewBox="0 0 304.54 66">
  <defs>
    <style>
      .cls-1 {
        fill: #fff;
      }
    </style>
  </defs>
  <g id="Layer_2" data-name="Layer 2">
    <g id="Layer_1-2" data-name="Layer 1">
      <g>
        <path class="cls-1" d="M44.26,40c-.33.84-.68,1.67-1,2.48L25.47,25.78,7.85,42.37c-.36-.8-.7-1.61-1-2.44A63.32,63.32,0,0,1,3.07,25.12H48A62.75,62.75,0,0,1,44.26,40M25.59,63.24a44.36,44.36,0,0,1-10.78-9.51c-.58-.7-1.13-1.42-1.67-2.16L25.47,40,37.93,51.69c-.52.71-1,1.4-1.61,2.07a43.8,43.8,0,0,1-10.73,9.48M50.53,24.43a77.43,77.43,0,0,0-.15-18.31,18.76,18.76,0,0,1-8.77,2.2A20.05,20.05,0,0,1,25.47,0c-2.72,4.19-8.93,8.27-16,8.27A18.78,18.78,0,0,1,.59,6.05C-1,19.44.7,32.86,6,44.13l0,0a53.54,53.54,0,0,0,5.41,9.1l0,0A47,47,0,0,0,25.58,66C40.2,57.54,48.35,42.23,50.45,25.12c0-.23.06-.46.08-.69"/>
        <g>
          <path class="cls-1" d="M66.52,18.54v6.58H63.71V7.5h5.14c2.89,0,5,1.67,5,4.82v1.17a4.65,4.65,0,0,1-5,5Zm0-8.46V16h2.1c1.45,0,2.37-.78,2.37-2.7v-.71c0-1.78-.92-2.47-2.37-2.47Z"/>
          <path class="cls-1" d="M79.06,25.12H76.24V13.37h2.82v1.91a4.42,4.42,0,0,1,4-2.14,2.09,2.09,0,0,1,.59,0v3.07a3.92,3.92,0,0,0-1.22-.18c-2.1,0-3.32,1.08-3.32,3.05Z"/>
          <path class="cls-1" d="M85.26,9.26A1.72,1.72,0,0,1,87,7.5a1.7,1.7,0,0,1,1.76,1.76A1.71,1.71,0,0,1,87,11,1.73,1.73,0,0,1,85.26,9.26Zm.36,15.86V13.37h2.82V25.12Z"/>
          <path class="cls-1" d="M94.48,25.12H91.66V13.37h2.82v1.7a3.76,3.76,0,0,1,3.38-1.93c2.49,0,4.37,1.64,4.37,5v7H99.41V18.66c0-2-.94-3.05-2.47-3.05s-2.46,1.08-2.46,3.05Z"/>
          <path class="cls-1" d="M110.52,15.72c-1.76,0-3.08,1.41-3.08,3.53s1.32,3.52,3.08,3.52a2.85,2.85,0,0,0,3-2.58h2.92c-.15,3.1-2.64,5.17-5.9,5.17a5.8,5.8,0,0,1-5.9-6.11,5.79,5.79,0,0,1,5.9-6.11c3.17,0,5.59,2,5.87,4.91h-3A2.68,2.68,0,0,0,110.52,15.72Z"/>
          <path class="cls-1" d="M124,25.36a5.76,5.76,0,0,1-5.83-6.11,5.84,5.84,0,1,1,11.66,0c0,.33,0,.63-.05.94H121a3,3,0,0,0,3.17,2.7,2.31,2.31,0,0,0,2.35-1.29h3C128.86,24,126.81,25.36,124,25.36Zm-3-7.17h6.06a3.07,3.07,0,0,0-6.06,0Z"/>
          <path class="cls-1" d="M137.62,22.77a4.21,4.21,0,0,0,1.3-.21v2.52a6.69,6.69,0,0,1-1.86.28c-2.33,0-4-.92-4-4.07V15.84h-1.88V13.37H133V9.85h2.82v3.52h3.06v2.47h-3.06V21.1C135.86,22.26,136.4,22.77,137.62,22.77Z"/>
          <path class="cls-1" d="M140.41,19.25a6,6,0,1,1,12,0,6,6,0,1,1-12,0Zm9.17,0a3.19,3.19,0,1,0-6.35,0,3.19,3.19,0,1,0,6.35,0Z"/>
          <path class="cls-1" d="M157.75,25.12h-2.82V13.37h2.82v1.7a3.75,3.75,0,0,1,3.38-1.93c2.49,0,4.37,1.64,4.37,5v7h-2.82V18.66c0-2-.94-3.05-2.47-3.05s-2.46,1.08-2.46,3.05Z"/>
          <path class="cls-1" d="M177.25,7.5V19.6c0,2.37.87,3.17,2.35,3.17S182,22,182,19.6V7.5h2.82V19.6c0,3.85-2,5.76-5.17,5.76s-5.17-1.91-5.17-5.76V7.5Z"/>
          <path class="cls-1" d="M190.77,25.12H188V13.37h2.82v1.7a3.77,3.77,0,0,1,3.38-1.93c2.5,0,4.37,1.64,4.37,5v7H195.7V18.66c0-2-.94-3.05-2.46-3.05s-2.47,1.08-2.47,3.05Z"/>
          <path class="cls-1" d="M201.3,9.26a1.76,1.76,0,1,1,3.52,0,1.76,1.76,0,0,1-3.52,0Zm.35,15.86V13.37h2.82V25.12Z"/>
          <path class="cls-1" d="M206.36,13.37h2.94L212,22.7l2.7-9.33h2.94L214,25.12h-4Z"/>
          <path class="cls-1" d="M224.31,25.36a5.76,5.76,0,0,1-5.83-6.11,5.83,5.83,0,1,1,11.65,0c0,.33,0,.63,0,.94h-8.84a3,3,0,0,0,3.17,2.7,2.29,2.29,0,0,0,2.35-1.29h3.06C229.12,24,227.08,25.36,224.31,25.36Zm-3-7.17h6.07a3.08,3.08,0,0,0-6.07,0Z"/>
          <path class="cls-1" d="M235.48,25.12h-2.82V13.37h2.82v1.91a4.43,4.43,0,0,1,4-2.14,2.09,2.09,0,0,1,.59,0v3.07a3.92,3.92,0,0,0-1.22-.18c-2.1,0-3.32,1.08-3.32,3.05Z"/>
          <path class="cls-1" d="M246.75,25.36c-2.94,0-5.17-1.51-5.17-4.11h2.94c0,1.26,1,1.9,2.23,1.9s1.88-.42,1.88-1.29c0-2.49-6.84-.38-6.84-5.17,0-2.19,2-3.55,4.61-3.55,2.82,0,4.93,1.74,4.93,4H248.4a1.84,1.84,0,0,0-2-1.74c-1.06,0-1.76.45-1.76,1.2,0,2.26,6.9.33,6.9,5.17C251.54,24,249.5,25.36,246.75,25.36Z"/>
          <path class="cls-1" d="M253.79,9.26a1.76,1.76,0,1,1,3.52,0,1.76,1.76,0,1,1-3.52,0Zm.35,15.86V13.37H257V25.12Z"/>
          <path class="cls-1" d="M265.43,22.77a4.15,4.15,0,0,0,1.29-.21v2.52a6.57,6.57,0,0,1-1.86.28c-2.32,0-4-.92-4-4.07V15.84H259V13.37h1.88V9.85h2.82v3.52h3.05v2.47h-3.05V21.1C263.67,22.26,264.21,22.77,265.43,22.77Z"/>
          <path class="cls-1" d="M268.27,31V28.48a5.18,5.18,0,0,0,1.55.26c1.31,0,2.14-.77,2.82-2.42l-4.42-12.95H271L274,22.42l3-9.05h2.82l-4.44,13c-1,2.9-2.26,4.89-5.24,4.89A6.09,6.09,0,0,1,268.27,31Z"/>
          <path class="cls-1" d="M67.79,35.26A4.32,4.32,0,0,1,72.4,40v1.18H69.58V40c0-1.5-.68-2.18-1.79-2.18a1.67,1.67,0,0,0-1.74,1.86,3.23,3.23,0,0,0,1.74,2.6l2.07,1.48a5.67,5.67,0,0,1,2.77,4.75,4.82,4.82,0,0,1-9.63.12V47.25h2.82v1.24a2,2,0,0,0,2,2.28,1.79,1.79,0,0,0,2-1.88A3.55,3.55,0,0,0,68,46l-2-1.44a5.6,5.6,0,0,1-2.75-4.81C63.23,36.53,65.28,35.26,67.79,35.26Z"/>
          <path class="cls-1" d="M80.61,43.72c-1.76,0-3.08,1.41-3.08,3.53s1.32,3.52,3.08,3.52a2.85,2.85,0,0,0,3-2.58h2.92c-.15,3.1-2.64,5.17-5.9,5.17a5.8,5.8,0,0,1-5.9-6.11,5.79,5.79,0,0,1,5.9-6.11c3.17,0,5.59,2,5.87,4.91h-3A2.68,2.68,0,0,0,80.61,43.72Z"/>
          <path class="cls-1" d="M91.85,53.12H89V35.5h2.82v7.57a3.78,3.78,0,0,1,3.39-1.93c2.49,0,4.37,1.64,4.37,5v7H96.79V46.66c0-2-.94-3-2.47-3s-2.47,1.08-2.47,3Z"/>
          <path class="cls-1" d="M102,47.25a6,6,0,1,1,12,0,6,6,0,1,1-12,0Zm9.16,0a3.19,3.19,0,1,0-6.34,0,3.19,3.19,0,1,0,6.34,0Z"/>
          <path class="cls-1" d="M115.78,47.25a6,6,0,1,1,12,0,6,6,0,1,1-12,0Zm9.16,0a3.19,3.19,0,1,0-6.34,0,3.19,3.19,0,1,0,6.34,0Z"/>
          <path class="cls-1" d="M130.32,53.12V35.5h2.82V53.12Z"/>
          <path class="cls-1" d="M141.48,47.25a6,6,0,1,1,12,0,6,6,0,1,1-12,0Zm9.17,0a3.19,3.19,0,1,0-6.35,0,3.19,3.19,0,1,0,6.35,0Z"/>
          <path class="cls-1" d="M159.44,41.37h3.06v2.47h-3.06v9.28h-2.82V43.84h-1.88V41.37h1.88V39.61a4.21,4.21,0,0,1,4.54-4.35,5.86,5.86,0,0,1,1.57.19V38a4.4,4.4,0,0,0-1.31-.19,1.74,1.74,0,0,0-2,1.83Z"/>
          <path class="cls-1" d="M177.21,49.13h-4.28l-.77,4h-2.85L173,35.5h4.23l3.64,17.62H178Zm-2.14-11.07-1.64,8.48h3.29Z"/>
          <path class="cls-1" d="M185.85,53.12H183V41.37h2.82v1.91a4.42,4.42,0,0,1,4-2.14,2.13,2.13,0,0,1,.59,0v3.07a4,4,0,0,0-1.23-.18c-2.09,0-3.31,1.08-3.31,3.05Z"/>
          <path class="cls-1" d="M197.66,43.72c-1.76,0-3.08,1.41-3.08,3.53s1.32,3.52,3.08,3.52a2.85,2.85,0,0,0,3-2.58h2.92c-.14,3.1-2.63,5.17-5.9,5.17a5.8,5.8,0,0,1-5.9-6.11,5.79,5.79,0,0,1,5.9-6.11c3.17,0,5.59,2,5.87,4.91h-3A2.68,2.68,0,0,0,197.66,43.72Z"/>
          <path class="cls-1" d="M208.91,53.12h-2.82V35.5h2.82v7.57a3.75,3.75,0,0,1,3.38-1.93c2.49,0,4.37,1.64,4.37,5v7h-2.82V46.66c0-2-.94-3-2.47-3s-2.46,1.08-2.46,3Z"/>
          <path class="cls-1" d="M219.43,37.26a1.72,1.72,0,0,1,1.77-1.76,1.76,1.76,0,1,1,0,3.52A1.73,1.73,0,0,1,219.43,37.26Zm.36,15.86V41.37h2.82V53.12Z"/>
          <path class="cls-1" d="M231.07,50.77a4.16,4.16,0,0,0,1.3-.21v2.52a6.69,6.69,0,0,1-1.86.28c-2.32,0-4-.92-4-4.07V43.84h-1.88V41.37h1.88V37.85h2.82v3.52h3.06v2.47h-3.06V49.1C229.31,50.26,229.85,50.77,231.07,50.77Z"/>
          <path class="cls-1" d="M239.7,53.36a5.75,5.75,0,0,1-5.82-6.11,5.83,5.83,0,1,1,11.65,0c0,.33,0,.63-.05.94h-8.83a3,3,0,0,0,3.17,2.7,2.29,2.29,0,0,0,2.35-1.29h3.06C244.52,52,242.48,53.36,239.7,53.36Zm-3-7.17h6.07a3.08,3.08,0,0,0-6.07,0Z"/>
          <path class="cls-1" d="M253.23,43.72c-1.76,0-3.08,1.41-3.08,3.53s1.32,3.52,3.08,3.52a2.85,2.85,0,0,0,3-2.58h2.92c-.14,3.1-2.63,5.17-5.9,5.17a5.8,5.8,0,0,1-5.9-6.11,5.8,5.8,0,0,1,5.9-6.11c3.17,0,5.59,2,5.87,4.91h-3A2.68,2.68,0,0,0,253.23,43.72Z"/>
          <path class="cls-1" d="M267,50.77a4.21,4.21,0,0,0,1.3-.21v2.52a6.69,6.69,0,0,1-1.86.28c-2.33,0-4-.92-4-4.07V43.84H260.5V41.37h1.88V37.85h2.82v3.52h3.06v2.47H265.2V49.1C265.2,50.26,265.74,50.77,267,50.77Z"/>
          <path class="cls-1" d="M278.08,51.45a3.69,3.69,0,0,1-3.31,1.91c-2.47,0-4.32-1.65-4.32-5v-7h2.82v6.47c0,2,.91,3,2.42,3s2.39-1.08,2.39-3V41.37h2.82V53.12h-2.82Z"/>
          <path class="cls-1" d="M287,53.12h-2.82V41.37H287v1.91a4.43,4.43,0,0,1,4-2.14,2.09,2.09,0,0,1,.59,0v3.07a3.92,3.92,0,0,0-1.22-.18c-2.09,0-3.32,1.08-3.32,3.05Z"/>
          <path class="cls-1" d="M298.71,53.36a5.75,5.75,0,0,1-5.82-6.11,5.83,5.83,0,1,1,11.65,0c0,.33,0,.63-.05.94h-8.83a3,3,0,0,0,3.17,2.7,2.29,2.29,0,0,0,2.35-1.29h3.06C303.53,52,301.49,53.36,298.71,53.36Zm-3-7.17h6.07a3.08,3.08,0,0,0-6.07,0Z"/>
        </g>
      </g>
    </g>
  </g>
</svg>
