<svg xmlns="http://www.w3.org/2000/svg" viewBox="0 0 614.07 173.75">
  <defs>
    <style>
      .cls-1 {
        fill: #fbfbfb;
      }
    </style>
  </defs>
  <g id="Layer_2" data-name="Layer 2">
    <g id="Layer_1-2" data-name="Layer 1">
      <g>
        <path class="cls-1" d="M613.08,31.33a1.93,1.93,0,0,0-.18-.88h-1.42c-3.09,0-5.06.13-10.63.13-1.91,0-4.75-.13-5.43-.13h-1.6c-.19.13-.26.81-.26,1.05a1.65,1.65,0,0,0,.31,1c1,.31,4.76.75,6.36,1.8,1.12,1.29,1.61,3.89,1.8,6.31.05.91.12,1.84.12,4.38v12.9A25.94,25.94,0,0,1,602,60.6c-1-1.17-2.54-3.39-5-6.18L576.38,31.57a4.42,4.42,0,0,0-.91-.81c-.5,0-1.37-.05-1.85-.05-4,0-11.12-.19-12.18-.19a2.34,2.34,0,0,0-.25.86,9.43,9.43,0,0,0,.19,1.17A8.6,8.6,0,0,1,566,34.9c1,1.12,2.72,2.66,3.27,3.9a5.33,5.33,0,0,1,.25,2c0,3.21-.18,7.71-.18,12V65.36a26.9,26.9,0,0,1-.37,4.69c-1.29,1.36-3.28,2.35-6.48,3.16a3.18,3.18,0,0,0-.25,1.1c0,.19.06.81.18.88h1.17c1.24,0,4.09-.19,5.93-.19,2.73,0,4.57.19,7.11.19h3.71c.24-.07.31-.81.31-1a2.91,2.91,0,0,0-.19-1c-2.16-.55-5.31-1-7.42-3.83-.43-.92-.79-5.49-.79-7.66,0-2-.07-4.69-.07-8.33,0-4.89.07-9.16.12-11.31.38.43.81,1,1.12,1.36L602,75.43a3.47,3.47,0,0,0,1.73.37,1.4,1.4,0,0,0,.74-.13A7,7,0,0,0,605,72.9c0-1.79-.06-3.65-.06-4.57V42.57c0-7.72,3.65-9.89,7.91-10.07a2.61,2.61,0,0,0,.24-1.17M542.29,51c0,9.34-2.59,17.55-6.11,20.45a10,10,0,0,1-6.56,2.23c-3.45,0-6.48-1.35-8.21-4.14-2.34-3.58-3.65-10.26-3.65-16.06,0-8.59,2.22-15.32,6.18-18.59a9.85,9.85,0,0,1,6.43-2.42,10.3,10.3,0,0,1,8.4,4.26c2.34,3.21,3.52,7.85,3.52,14.27m11.17,1.18c0-8.65-3.83-15.26-11-19.21a23.89,23.89,0,0,0-11.74-3.15,25.13,25.13,0,0,0-20.82,11.49,23.63,23.63,0,0,0-3.57,12.48,23,23,0,0,0,8.83,18.09,23.15,23.15,0,0,0,14.09,4.45,25.6,25.6,0,0,0,9.38-1.79,22.15,22.15,0,0,0,8.59-5.86,23.88,23.88,0,0,0,6.23-16.5m-54.29-7.79V31.76c0-.93-.37-1.18-1.3-1.18-1.86,0-11.61.25-21.49.25-7.67,0-14-.12-17.49-.12h-4.58c-.8,0-1,.17-1,1.05v11.8a1.81,1.81,0,0,0,1,.24,5.3,5.3,0,0,0,1.37-.12c2.77-5.62,5.38-8.65,8.65-10.32,1.85-.19,5.49-.24,6.48-.24.06.67.13,2.83.18,5.43.07,4.44.07,6.37.07,16.86,0,9.09-.07,13.17-.19,14.15-.24,1.73.07,3-7.35,3.34a3.5,3.5,0,0,0-.19,1.41,4.81,4.81,0,0,0,.07,1h2.4c2.29,0,7.66-.26,9.9-.26,1.78,0,7.53.19,11.3.19h1.72a3,3,0,0,0,.19-1.29,2.29,2.29,0,0,0-.24-1.11c-.69,0-4.64.12-6.37-1.17a19.5,19.5,0,0,1-.56-4.64c-.06-6.67-.12-9.21-.12-13.66,0-5.74.06-9.63.06-20.32.87,0,2.85-.06,4.7,0,3.83,1.05,5.69,2.47,7.35,4.7a30,30,0,0,1,3.27,6.74,3.48,3.48,0,0,0,1.05.11,3,3,0,0,0,1.18-.25M445.92,64.43a12.68,12.68,0,0,0-.07-1.78,1.36,1.36,0,0,0-.93-.19,5.3,5.3,0,0,0-1.36.12c-2.09,4.76-5.12,8.47-6.79,9.45-.92.56-2.35.68-4.64.68h-5.06A21.88,21.88,0,0,1,423,72.4c-.93-.18-1.91-1.66-2.35-2.65s-.68-1.06-.68-3.89V52.32h2.29a9.68,9.68,0,0,1,3.76.88,5.58,5.58,0,0,1,2.78,2.59c.56.86.93,4.26,1.05,5.12a4.16,4.16,0,0,0,1.62.24,2.16,2.16,0,0,0,1.23-.3c0-1.67-.38-6.17-.38-8.65,0-3.09.43-7.35.62-9.57a2.55,2.55,0,0,0-1.23-.25,4.43,4.43,0,0,0-1.6.19c-.19.85-.88,3.45-1,3.64a7.43,7.43,0,0,1-4.19,3.21,16.14,16.14,0,0,1-3.59.5H420V44.16c0-5.92.13-7.83.18-8.95.07-.74.19-1.54.26-2.09a23.91,23.91,0,0,1,3.7-.13c3.58,0,5.25.06,5.8.06a6.93,6.93,0,0,1,4,1.24c2.34,1.78,4.13,4.63,5.92,7.66a5,5,0,0,0,1.3.12c.37,0,.43-.12.93-.37,0-3.77-.25-8.65-.37-10.2-.07-.62-.19-.79-1.42-.79-.5,0-2.85-.13-5.31-.13-3.52,0-4.95.06-10.33.06-2.9,0-8.9.07-11.43.07-3.7,0-6.85-.13-8.46-.13h-2.1a2,2,0,0,0-.31,1,2.73,2.73,0,0,0,.31,1.23c.74.25,3.64.19,4.51.68.87.75,1.66,1.06,2.22,4,.13,1.3.19,4.88.19,7.73V57.94c0,2.6-.06,6.37-.13,7.92a17.56,17.56,0,0,1-1.35,5.86c-.56.43-3.09.81-5.56.93a3.58,3.58,0,0,0-.31,1.36,2.26,2.26,0,0,0,.31,1.11h2c2,0,9.27-.19,10.94-.19s4.51.12,8.09.12c2,0,7.79.38,20.26.38a5.18,5.18,0,0,0,1.67-.12,1.86,1.86,0,0,0,.25-1c.13-1.23.13-4.88.13-9.88M393.66,66.6a2.07,2.07,0,0,0-2.1-1.48c-.14,0-.32,0-.43,0-3.72,5.26-7.8,7.23-12.43,7.23a13.54,13.54,0,0,1-12.48-8.16A33.91,33.91,0,0,1,364.31,53a27.15,27.15,0,0,1,1.85-10.82c2.72-7.16,6.67-9.39,11.5-9.39,4,0,7.35,2.29,9.88,5.57a27.3,27.3,0,0,1,3.14,7.48A7.16,7.16,0,0,0,392,46a3.2,3.2,0,0,0,1.49-.55c-.06-.69-.68-5.43-.68-6.92,0-1.86.49-4.88.49-6a5.05,5.05,0,0,0-2.4-.69,13.17,13.17,0,0,0-2.11,2.54c-3.46-2.47-6.67-4.38-13.71-4.38a21.13,21.13,0,0,0-15.51,6.1c-4.27,4.21-6.61,10-6.61,17.42,0,7.92,3.34,14.4,8.71,18.48a24.56,24.56,0,0,0,14.4,4.15c7.53,0,13-2.85,15.81-6.62a12.76,12.76,0,0,0,1.74-2.9M345.59,31.33a2.07,2.07,0,0,0-.18-.88H344c-3.09,0-5.06.13-10.63.13-1.91,0-4.76-.13-5.43-.13h-1.61c-.18.13-.25.81-.25,1.05a1.6,1.6,0,0,0,.32,1c1,.31,4.75.75,6.37,1.8,1.1,1.29,1.59,3.89,1.78,6.31.06.91.13,1.84.13,4.38v12.9a22.56,22.56,0,0,1-.13,2.66c-1-1.17-2.54-3.39-5-6.18L308.91,31.57a4.9,4.9,0,0,0-.93-.81c-.5,0-1.37-.05-1.85-.05-4,0-11.13-.19-12.18-.19a2.32,2.32,0,0,0-.24.86,9.3,9.3,0,0,0,.18,1.17,8.6,8.6,0,0,1,4.63,2.35c1,1.12,2.73,2.66,3.28,3.9a5.37,5.37,0,0,1,.24,2c0,3.21-.17,7.71-.17,12V65.36a26.7,26.7,0,0,1-.38,4.69c-1.29,1.36-3.28,2.35-6.49,3.16a3.69,3.69,0,0,0-.24,1.1c0,.19.06.81.18.88h1.17c1.24,0,4.09-.19,5.93-.19,2.73,0,4.57.19,7.11.19h3.7c.24-.07.31-.81.31-1a2.91,2.91,0,0,0-.19-1c-2.16-.55-5.3-1-7.41-3.83-.42-.92-.79-5.49-.79-7.66,0-2-.07-4.69-.07-8.33,0-4.89.07-9.16.12-11.31.38.43.81,1,1.12,1.36l28.53,32.06a3.5,3.5,0,0,0,1.73.37,1.37,1.37,0,0,0,.74-.13,7,7,0,0,0,.55-2.77c0-1.79-.06-3.65-.06-4.57V42.57c0-7.72,3.65-9.89,7.91-10.07a2.63,2.63,0,0,0,.25-1.17M284.5,74.14a3.79,3.79,0,0,0-.19-1.24,42.68,42.68,0,0,1-4.57-.56,9.76,9.76,0,0,1-2.1-4.76c-.06-3-.12-9.08-.12-14.82V37.56a4.78,4.78,0,0,1,1.12-3.33c1.17-1.11,3.52-1.37,5.5-1.61a4,4,0,0,0,.17-1.17,1.76,1.76,0,0,0-.31-1h-1.79c-2.59,0-8.64.31-10.75.31-1.29,0-7.34-.18-10.07-.24H260a1.49,1.49,0,0,0-.31,1.05,8.76,8.76,0,0,0,.12,1.17c3,.25,4.39.56,4.82.87.74.55,1.79,1.91,2.05,5.25,0,1.18.11,3.71.17,9.39.07,3.09.12,7.41.12,11,0,1.79-.12,5.81-.18,8a10.45,10.45,0,0,1-.86,3.71c-.74.6-1.49,1.72-6,2a4.5,4.5,0,0,0-.19,1.3c0,.5.12.74.12,1h1c2.48,0,8.66-.31,11.87-.31.93,0,7.34.19,9.38.19h2.05a2.44,2.44,0,0,0,.24-1M235,41.88c0,3.83-2.59,8.23-5.61,9a21.3,21.3,0,0,1-5.07.49,14.26,14.26,0,0,1-2.29-.13L221.92,46V34.59a2,2,0,0,1,.37-1.36,6.26,6.26,0,0,1,2.6-.37c4.82,0,6.92.44,8.65,3.35A11,11,0,0,1,235,41.88M252.87,74.2a3,3,0,0,0-.31-1.3c-.62,0-3.14-.13-4.07-.8a13.6,13.6,0,0,1-1.05-1.55,67.56,67.56,0,0,0-2.66-7.11,23.53,23.53,0,0,0-4.57-7.34,18.8,18.8,0,0,0-4.64-2c-1-.38-1.79-.69-2.53-1a21,21,0,0,1,2.53-.36c4.57-.56,5.62-1.36,6.8-2.29a9.74,9.74,0,0,0,3.83-8c0-5-3.21-9.83-7.73-11.24a30.14,30.14,0,0,0-7.4-.69c-4.64,0-11.13.43-14.21.43-.93,0-6.31-.12-8.47-.12-.93,0-3.28-.12-3.64-.12a3.57,3.57,0,0,0-.31,1.17,6.09,6.09,0,0,0,.12,1.12c1.05.12,3,.37,3.95.55a7.2,7.2,0,0,1,2.59,3.34c.32,2,.38,7,.38,15.76,0,6.29.06,13.59-.25,15.93-.18,1.54-.74,3.4-2.53,4.14a34.22,34.22,0,0,1-3.52.43,3,3,0,0,0-.31,1.23,4,4,0,0,0,.24,1c.88,0,10.33-.19,12.3-.19,4,0,7.29.19,10.81.19a2.59,2.59,0,0,0,.25-.93,3.62,3.62,0,0,0-.25-1.3c-1.24-.12-2.77-.49-3.46-.62a4.63,4.63,0,0,1-2.66-4.38l0-14.28c.48,0,1.1,0,1.6,0a6.2,6.2,0,0,1,3.27,1,11.86,11.86,0,0,1,4.89,4.51c2,3.09,3.28,8.78,3.88,13.29.19,1.3.68,2.4,1.86,2.52.49.07,3.77.19,6.11.19h8.85a1.68,1.68,0,0,0,.36-1m-67.09-32a10.17,10.17,0,0,1-3.14,7.73c-1.31,1-3.35,1.66-6.43,1.66a21.65,21.65,0,0,1-2.66-.12c-.5-.06-.81-.12-.81-.43l.07-18.1a25.61,25.61,0,0,1,3.58-.31c4.2,0,6.8,1.05,8,3.64a13.21,13.21,0,0,1,1.36,5.93m11.06.25a11.83,11.83,0,0,0-6.61-10.75c-2-.86-5.62-1.41-11.06-1.41-4.76,0-12.17.36-15.44.36-2.29,0-5.75-.24-7.67-.24a2.35,2.35,0,0,0-.31,1,3,3,0,0,0,.19,1.24c1.17.37,3.09.68,4.33,1,1,.93,1.29,1.72,1.66,3.52.19,2.17.31,4.88.31,9.57,0,13-.06,19.9-.24,21.38a5.28,5.28,0,0,1-3.52,4.38,33.38,33.38,0,0,1-3.59.62,7.78,7.78,0,0,0-.12,1.3,1.75,1.75,0,0,0,.18.86c2,0,7.79-.24,10-.24,5.5,0,11.12.24,13.4.24h1.55a1.7,1.7,0,0,0,.19-1,3,3,0,0,0-.13-1.12c-1.85-.24-4.63-.61-5.8-2a5.27,5.27,0,0,1-1.24-3.65l-.19-13.58c3.71.24,7.66.36,9.83.36a23.84,23.84,0,0,0,7.16-1.1,11.36,11.36,0,0,0,7.11-10.76"/>
        <path class="cls-1" d="M614.07,100.23c0-.37-.24-.49-.37-.74-2.53,0-5.86.19-7.17.19-3.14,0-7-.26-8.64-.26-.19.38-.26.44-.26.75a2.13,2.13,0,0,0,.14.75c1.79.36,4.38.79,4.88,1.66a4.5,4.5,0,0,1,.55,2.41,5.93,5.93,0,0,1-.37,2.29c-.56,1.54-1.73,4-3.39,7.35-2.85,5.74-4.64,9.32-5.63,10.75-1.61-2.73-5.18-9.89-6-11.74l-3.46-7.53a5.83,5.83,0,0,1-.25-1.67,4.07,4.07,0,0,1,.25-1.61c.55-1.12,2.47-1.24,5.07-1.55a2.83,2.83,0,0,0,.17-.93c0-.43-.17-.31-.36-.61h-1.11c-4.15,0-2.91.18-10,.18-3,0-6.68-.18-7.16-.18-.26.43-.38.49-.38.92a1.31,1.31,0,0,0,.25.74c4.13,1,5.37,1.73,5.8,2.54l10.82,21.19a24.12,24.12,0,0,1,2,4.63,34.41,34.41,0,0,1,.5,7.41c0,2.66-.93,4.09-2,4.76a28.59,28.59,0,0,1-4.94.81,1.43,1.43,0,0,0-.31.86,2.59,2.59,0,0,0,.18.74c3.16,0,6.44-.06,8.28-.06,1.3,0,3.28.06,6.92.12,2.1.07,3.71.13,4.82.13a1.8,1.8,0,0,0,.32-.8,1.36,1.36,0,0,0-.26-.81c-2-.25-4.75-.62-5.37-1.24-1-1-1.48-1.54-1.61-3.94l-.49-9.28a3.68,3.68,0,0,1,.24-1.48,10.23,10.23,0,0,1,.68-1.73l9.52-18.84a12.67,12.67,0,0,1,3.95-4.13,16.67,16.67,0,0,1,4-1.24,2.22,2.22,0,0,0,.24-.81M564.17,113V101c0-.93-.38-1.17-1.31-1.17-1.85,0-10.38.24-20.26.24-7.66,0-12.79-.12-16.25-.12h-4.57c-.8,0-1,.19-1,1v11.18a1.07,1.07,0,0,0,.74.25,1.58,1.58,0,0,0,.74-.12c2.41-5.38,3.64-8.22,7.79-10.32,1.85-.18,8.33-.25,9.32-.25.07.69.13,2.85.19,5.44.06,4.45.06,6.86.06,17.36,0,9.08-.06,13.78-.18,14.77-.25,1.72.06,3-7.35,3.33a2,2,0,0,0-.19,1,2.62,2.62,0,0,0,.07.74h2.4c2.29,0,5.31-.24,7.53-.24,1.8,0,5.19.18,9,.18h1.73a1.69,1.69,0,0,0,.18-.92,1.37,1.37,0,0,0-.25-.87c-.68,0-4.63.12-6.36-1.17a18.9,18.9,0,0,1-.56-4.64c0-6.67-.12-9.82-.12-14.26,0-5.75.07-10.14.07-20.82.86,0,5.43-.07,7.29,0a11.1,11.1,0,0,1,7,4.69c1.49,2,1.86,3.76,2.78,6.73a2.48,2.48,0,0,0,.93.12,1.24,1.24,0,0,0,.69-.24m-51.35,30.51a2,2,0,0,0-.18-.86,43.16,43.16,0,0,1-4.58-.56,9.76,9.76,0,0,1-2.1-4.75c0-3-.12-9.7-.12-15.44v-15.7a5,5,0,0,1,1.11-3.33c1.17-1.12,3.53-1.36,5.5-1.62a1.91,1.91,0,0,0,.19-.79,1,1,0,0,0-.31-.74h-1.79c-2.6,0-6.3.31-8.41.31-1.29,0-5-.19-7.72-.25h-1.36a.91.91,0,0,0-.3.8,3.78,3.78,0,0,0,.12.81c3,.24,4.38.55,4.81.86.75.55,1.8,1.92,2.05,5.26.06,1.16.11,4.31.18,10,.06,3.09.12,7.29.12,10.87,0,1.79-.12,6.42-.19,8.59a10.63,10.63,0,0,1-.85,3.71c-.75.62-1.49,1.72-6,2a2.62,2.62,0,0,0-.19.93c0,.5.12.5.12.8H494c2.48,0,6.3-.3,9.51-.3.93,0,5,.18,7.05.18h2a1.46,1.46,0,0,0,.25-.81M482.3,132.1c0-4.93-2.21-8.33-7-10.86a33.53,33.53,0,0,0-6.85-2.47,45.25,45.25,0,0,1-9-3.4,7.43,7.43,0,0,1-3.64-6.74c0-3.95,4-7.23,8.71-7.23a10.39,10.39,0,0,1,8.47,4.33,31.43,31.43,0,0,1,3.83,7,1.91,1.91,0,0,0,.62.13,2.06,2.06,0,0,0,1.36-.62,48,48,0,0,1-.5-5.56,33.22,33.22,0,0,1,.56-4.82,1.91,1.91,0,0,0-1.86-.86,13.18,13.18,0,0,0-2.41,2.22,15.48,15.48,0,0,0-10.5-3.84c-7.59,0-13,5.07-13,11.81a12.48,12.48,0,0,0,2.28,6.8,13.43,13.43,0,0,0,6,4.5c1.78.74,9.82,3.16,10.92,3.59,4.95,1.91,6.81,3.58,6.81,8,0,2.15-.93,4.08-2.72,6.24a8.65,8.65,0,0,1-6.86,2.9c-2.9,0-7.91-1.23-10.39-4.57a29.36,29.36,0,0,1-4.19-8.35,2.32,2.32,0,0,0-.86-.11,2.07,2.07,0,0,0-1.18.37c0,.8.25,4.88.25,6.11a26,26,0,0,1-.68,5.51,2.36,2.36,0,0,0,2,1.23,8.78,8.78,0,0,1,3.09-2A2.86,2.86,0,0,1,457,142a17.93,17.93,0,0,0,10.33,3.09c8.71,0,14.94-4.4,14.94-13m-54.67-21.3c0,4-3.15,8.4-6.79,9.21a34.39,34.39,0,0,1-6.43.48c-.74,0-2.84,0-3.77-.12l-.06-5.43V103.26c0-.81.19-1.24.43-1.43a21.61,21.61,0,0,1,4.32-.36c5.81,0,8.47.55,10.57,3.57a9.79,9.79,0,0,1,1.73,5.76m13,32.74a1.61,1.61,0,0,0-.3-.93c-.62,0-3.16-.12-4.09-.8a16.84,16.84,0,0,1-1-1.55,75.47,75.47,0,0,0-2.59-7.71,23,23,0,0,0-4.57-7.36,17.06,17.06,0,0,0-4.45-2c-1-.38-1.79-.67-2.53-1a22.89,22.89,0,0,1,2.53-.38c4-.49,5.38-1.36,6.56-2.28a9.87,9.87,0,0,0,4.07-8c0-5-3.21-9.76-7.73-11.19a30.45,30.45,0,0,0-7.41-.67c-4.63,0-8.09.43-11.18.43-.92,0-3.95-.12-6.11-.12-.93,0-3.28-.13-3.65-.13-.18.44-.31.56-.31.8a3.51,3.51,0,0,0,.13.86c1,.14,3,.38,3.95.57a7.13,7.13,0,0,1,2.59,3.33c.31,2,.38,7.54.38,16.25,0,6.3.05,14.21-.26,16.55-.17,1.54-.73,3.4-2.53,4.14a33.57,33.57,0,0,1-3.52.44,1.62,1.62,0,0,0-.31.86,2.28,2.28,0,0,0,.25.74c.87,0,8-.19,9.94-.19,4,0,4.95.19,8.47.19a1.53,1.53,0,0,0,.25-.67,1.85,1.85,0,0,0-.25-.93c-1.23-.13-2.78-.5-3.46-.61a4.68,4.68,0,0,1-2.65-4.4l-.07-15.44c.5-.06,2.28-.06,2.78-.06a11.45,11.45,0,0,1,4.94.86,13.85,13.85,0,0,1,6.06,5c2,3.09,3.28,9,3.9,13.47.18,1.3.67,2.41,1.85,2.54a25.41,25.41,0,0,0,3.58.18h6.42a1,1,0,0,0,.37-.8m-51.83-9.39a15,15,0,0,0-.06-1.79,1.36,1.36,0,0,0-.93-.19,1.88,1.88,0,0,0-.8.12c-1.37,4.52-3.7,7.85-6.37,9.45-.92.56-2.59.69-5.24.69h-6.92a30.26,30.26,0,0,1-4.09-.31c-.91-.19-1.91-1.67-2.33-2.66s-.69-1.42-.69-4.26V121.11h2a12.26,12.26,0,0,1,5.25.87,7.38,7.38,0,0,1,3.33,2.65c.57.87.75,4.26.88,5.13a1.88,1.88,0,0,0,2-.06c0-1.67-.37-6.17-.37-8.65,0-3.09.43-6.85.61-9.08a1.62,1.62,0,0,0-1-.24,1.81,1.81,0,0,0-1,.18c-.19.86-.69,3.46-.8,3.65a8.93,8.93,0,0,1-4.76,3.27,20.13,20.13,0,0,1-5.07.49h-1v-6c0-5.93.12-8.34.18-9.45.06-.75.18-1.54.25-2.11.55,0,2.35-.12,5.19-.12,3.58,0,6.23.07,6.8.07a6.91,6.91,0,0,1,3.95,1.23c3,2.34,3.83,3.89,5.5,7.67a1.83,1.83,0,0,0,.74.11c.37,0,.43-.11.92-.37,0-3.76-.24-8-.37-9.57-.06-.62-.18-.81-1.42-.81-.49,0-2.84-.12-5.31-.12-3.53,0-4.94.06-10.32.06-2.9,0-8,.06-10.56.06-3.71,0-4.52-.12-6.12-.12h-2.1a1.25,1.25,0,0,0-.31.74,1.41,1.41,0,0,0,.31.86c.74.26,3.65.19,4.51.69.87.74,1.66.93,2.23,3.88.12,1.31.19,5.5.19,8.35v12.73c0,2.59-.07,6.86-.14,8.4a18.16,18.16,0,0,1-1.36,6c-.55.44-3.09.81-5.55.93a2,2,0,0,0-.31,1,1.39,1.39,0,0,0,.31.85h2c2,0,6.93-.18,8.59-.18s3.64.13,7.23.13c2,0,7.78.37,20.26.37a5.21,5.21,0,0,0,1.67-.13,1.81,1.81,0,0,0,.25-1c.12-1.23.12-4.27.12-9.27m-45.71-33.73c0-.25-.07-.62-.31-.68h-2.1c-1.49,0-3.83.12-4.88.12-5,0-6.8-.31-7.54-.31h-1.11c-.13.31-.32.49-.32.8s.13.43.13.69a21.27,21.27,0,0,1,4.27.92,5.82,5.82,0,0,1,1.55,3.89,23.07,23.07,0,0,1-1.5,5.62l-9.94,24.46L309.09,105a4.66,4.66,0,0,1,2-3.47,28,28,0,0,1,4-.48,2.42,2.42,0,0,0,.24-.87c0-.25-.06-.62-.31-.68h-1.55c-1.9,0-4.8.25-8.08.25-1.42,0-4.19-.13-6.92-.13h-2.41a1.38,1.38,0,0,0-.24.74,1.28,1.28,0,0,0,.19.75,21,21,0,0,1,5.19,2.1c1.17,1.73,3.7,8,5.07,11.24l5.11,12.35c4.26,10.26,6.79,17.12,7.1,18.3.31.18,0,.36.56.36s.5-.12.62-.43l15.93-38.3a12.28,12.28,0,0,1,2.23-3.52c1-1.11,3-1.54,4.93-2a2.62,2.62,0,0,0,.26-.79M289,143.47a1.75,1.75,0,0,0-.19-.86,42.68,42.68,0,0,1-4.57-.56,9.85,9.85,0,0,1-2.1-4.75c-.06-3-.12-9.7-.12-15.44v-15.7a4.8,4.8,0,0,1,1.12-3.33c1.17-1.12,3.51-1.36,5.48-1.62a1.64,1.64,0,0,0,.19-.79,1,1,0,0,0-.31-.74h-1.79c-2.59,0-6.3.31-8.4.31-1.3,0-5-.19-7.71-.25h-1.37a.91.91,0,0,0-.31.8,3.86,3.86,0,0,0,.13.81c3,.24,4.38.55,4.81.86.74.55,1.79,1.92,2.05,5.26.05,1.16.12,4.31.17,10,.07,3.09.14,7.29.14,10.87,0,1.79-.14,6.42-.19,8.59a10.37,10.37,0,0,1-.87,3.71c-.73.62-1.48,1.72-6,2a2.62,2.62,0,0,0-.19.93c0,.5.13.5.13.8h1c2.48,0,6.31-.3,9.52-.3.93,0,5,.18,7,.18h2a1.44,1.44,0,0,0,.24-.81M261,100.3a1,1,0,0,0-.19-.62h-1.42c-3.09,0-4.45.12-10,.12-1.93,0-4.76-.12-5.44-.12h-1.61c-.18.12-.25.55-.25.8a.81.81,0,0,0,.31.68c1,.31,4.76.74,6.37,1.79,1.1,1.3,1.6,3.89,1.79,6.3.06.93.12,1.86.12,4.39V132a23.26,23.26,0,0,1-.12,2.66c-1.05-1.17-2.84-3.45-5.26-6.3l-23.59-27.56a4.25,4.25,0,0,0-.93-.79c-.5,0-1.11-.07-1.61-.07-3.95,0-7.41-.18-8.46-.18a1.13,1.13,0,0,0-.18.61,4.33,4.33,0,0,0,.11.81c.93.24,3.65.55,4.77,1.73s2.47,2.41,3,3.65a5.27,5.27,0,0,1,.26,2c0,3.22-.19,9.07-.19,13.41v13.15a26.61,26.61,0,0,1-.38,4.69c-1.29,1.36-3.27,2.36-6.48,3.16a1.71,1.71,0,0,0-.25.74c0,.19.06.55.18.62h1.17c1.24,0,4.09-.18,5.95-.18,2.71,0,3.94.18,6.47.18h3.72c.24-.07.3-.55.3-.81a1.2,1.2,0,0,0-.19-.62c-2.16-.55-5.3-1-7.4-3.82-.44-.93-.81-5.63-.81-7.79,0-2-.07-5.19-.07-8.83,0-4.88.07-11.61.13-13.78.37.43.93,1.12,1.36,1.6l29.28,34.3c.31.3.43.37.75.37s.11,0,.37-.12a9.6,9.6,0,0,0,.31-2.78c0-1.79-.07-3.65-.07-4.58V111.16c0-7.71,3.65-9.88,7.91-10.06a1.46,1.46,0,0,0,.25-.8m-57.21.29a1.27,1.27,0,0,0-.31-.79h-1.78c-1.93,0-4.52.12-6.74.12-2.47,0-5.25-.12-7.05-.12h-2.22a1.56,1.56,0,0,0-.25.79,2.16,2.16,0,0,0,.19.81c.25,0,4.76.07,5.55,1.18a15.21,15.21,0,0,1,2.42,4.57,40.89,40.89,0,0,1,.49,6.79c0,5.26,0,8.78-.06,10.63a33,33,0,0,1-1.12,8.22c-1.73,5.38-5.73,8-12.1,8a17.13,17.13,0,0,1-7.23-1.55c-4-2-5.94-5.75-6-7.8L167.31,113l-.06-7.54c0-1.42,1.78-2.72,2.4-3.46a28.55,28.55,0,0,1,4.76-.61,1.87,1.87,0,0,0,.31-.87,1.06,1.06,0,0,0-.43-.8l-2.34.06c-2.3.06-5.32.12-7.23.12-3,0-5.26-.06-7.11-.06H155a1.07,1.07,0,0,0-.32.86,1,1,0,0,0,.26.74c2,.26,3.26.43,4.14.62a5.14,5.14,0,0,1,2.15,2.73c.07.79.19,2.77.19,6.66v14.83a38,38,0,0,0,.62,8.28,12.24,12.24,0,0,0,5.37,7.6,20.23,20.23,0,0,0,11.31,3,21.41,21.41,0,0,0,10.63-2.54c3.08-1.67,5-4.38,6.1-8.22a28.06,28.06,0,0,0,1-7.35V115.12c0-2.22.12-5,.12-6.11a12.43,12.43,0,0,1,1.86-6.8,24.54,24.54,0,0,1,5.13-.86,1.55,1.55,0,0,0,.24-.76"/>
        <g>
          <path class="cls-1" d="M52.7,38.35a1,1,0,0,0-.86.57L50,43a.34.34,0,0,1-.15.07c-.05,0-.12-.07-.16-.19S49.45,42.13,49,41l-.58-1.33c-.21-.48-.38-.8-.43-.9a.89.89,0,0,0-.77-.45.18.18,0,0,1,0-.12.23.23,0,0,1,0-.11h1.19l1.12,0h.2s.05.07.05.1a.32.32,0,0,1,0,.13c-.23,0-.72,0-.72.32a1,1,0,0,0,0,.28l1.2,2.83,1-2.35a1.5,1.5,0,0,0,.13-.62c0-.27-.18-.38-.68-.45a.35.35,0,0,1,0-.11.42.42,0,0,1,0-.13h.14c.22,0,.45,0,.94,0h.94s0,.06,0,.1A.21.21,0,0,1,52.7,38.35Z"/>
          <path class="cls-1" d="M57.76,42.89c-1.45,0-2.23,0-2.43,0h-.69c-.2,0-.66,0-1.17,0h-.29a.22.22,0,0,1,0-.11.62.62,0,0,1,0-.13,1.75,1.75,0,0,0,.73-.16,1.33,1.33,0,0,0,.15-.73c0-.22,0-.46,0-.71s0-.81,0-1.35v-.75c0-.52-.26-.52-.8-.58a1.11,1.11,0,0,1,0-.13.18.18,0,0,1,.05-.12h1.82l1.82,0h.5c.11,0,.15,0,.15.11l.07,1.09c-.07,0-.08,0-.13,0h-.11a2.31,2.31,0,0,0-.72-.83.84.84,0,0,0-.42-.12H55.06c-.05,0,0,0-.07.19s0,.33,0,1v.62h.17a2,2,0,0,0,.54-.06.86.86,0,0,0,.49-.34,1.92,1.92,0,0,0,.11-.4.31.31,0,0,1,.15,0,.2.2,0,0,1,.13,0,10.07,10.07,0,0,0-.05,1c0,.23,0,.74,0,1,0,0-.06,0-.13,0h-.13c-.05-.41-.11-.69-.46-.83a1.22,1.22,0,0,0-.53-.1l-.32,0v1.25a1.38,1.38,0,0,0,.07.56.42.42,0,0,0,.29.27,2.44,2.44,0,0,0,.44,0h.68A1.31,1.31,0,0,0,57,42.5a2.71,2.71,0,0,0,.76-1,.29.29,0,0,1,.14,0,.31.31,0,0,1,.15,0v1.26C58,42.87,57.94,42.89,57.76,42.89Z"/>
          <path class="cls-1" d="M63.52,39.61l-.14,0a3,3,0,0,0-.35-.7,1.14,1.14,0,0,0-.89-.47h-.46v2.1c0,.34,0,.73,0,1.45,0,.56.25.56.83.63a.33.33,0,0,1,0,.14.27.27,0,0,1,0,.12h-.21l-1.21,0-1.21,0a.14.14,0,0,1,0-.13.21.21,0,0,1,0-.12c.76-.06.84-.2.86-.45s0-.78,0-1.43V39a3.15,3.15,0,0,0,0-.58,3.59,3.59,0,0,0-.74,0,1.9,1.9,0,0,0-1,1.05h-.12a.12.12,0,0,1-.11-.05V38.25c0-.11,0-.13.14-.13h2.26c1.15,0,2,0,2.23,0a.47.47,0,0,1,.23,0,1.05,1.05,0,0,1,0,.18v1.23A.14.14,0,0,1,63.52,39.61Z"/>
          <path class="cls-1" d="M52.47,47.1h-.14a2.12,2.12,0,0,0-.36-.71,1.08,1.08,0,0,0-.88-.47h-.47V48c0,.33,0,.72,0,1.45,0,.55.27.55.84.63a.22.22,0,0,1,0,.14.23.23,0,0,1,0,.11h-.21l-1.21,0-1.23,0a.21.21,0,0,1,0-.12.69.69,0,0,1,0-.13c.76-.06.84-.2.87-.44s0-.79,0-1.43V46.49a3.27,3.27,0,0,0,0-.58,3.73,3.73,0,0,0-.75.05c-.39.14-.65.47-1,1a.36.36,0,0,1-.14,0,.18.18,0,0,1-.11-.05V45.75c0-.11,0-.14.15-.14h.52c.18,0,.87,0,1.75,0,1.14,0,2,0,2.21,0s.2,0,.23,0,0,.11,0,.17V47A.12.12,0,0,1,52.47,47.1Z"/>
          <path class="cls-1" d="M57.94,50.38c-1.44,0-2.24,0-2.42,0h-.7c-.19,0-.67,0-1.16,0h-.29a.19.19,0,0,1,0-.1.34.34,0,0,1,0-.14,1.68,1.68,0,0,0,.72-.16,1.33,1.33,0,0,0,.15-.73c0-.22,0-.46,0-.71s0-.81,0-1.35c0-.37,0-.59,0-.74,0-.53-.25-.53-.8-.59a.35.35,0,0,1,0-.13s0-.1.06-.12h1.81l1.83,0h.49c.12,0,.16,0,.16.12l.06,1.08a.25.25,0,0,1-.14,0h-.11a2.05,2.05,0,0,0-.72-.83.87.87,0,0,0-.41-.12h-.65a3.74,3.74,0,0,0-.53,0c-.07,0-.06,0-.08.18s0,.33,0,1v.62h.16a2.4,2.4,0,0,0,.54,0,.9.9,0,0,0,.5-.35,3.15,3.15,0,0,0,.1-.39.26.26,0,0,1,.15,0,.17.17,0,0,1,.13,0c0,.19-.05.56-.05,1,0,.24,0,.75,0,1a.18.18,0,0,1-.13,0h-.15c0-.41-.09-.69-.45-.83a1.23,1.23,0,0,0-.52-.1l-.32,0v1.25a1.74,1.74,0,0,0,.06.57c0,.08.15.24.28.26a2.82,2.82,0,0,0,.45,0h.69a1.42,1.42,0,0,0,.51-.07,2.57,2.57,0,0,0,.78-1,.36.36,0,0,1,.14,0,.35.35,0,0,1,.13,0v1.27C58.19,50.36,58.12,50.38,57.94,50.38Z"/>
          <path class="cls-1" d="M61.3,50.48a2.74,2.74,0,0,1-1.1-.28.42.42,0,0,0-.18,0,.87.87,0,0,0-.35.18c-.12,0-.25-.05-.28-.14s.09-.4.09-.59,0-.65,0-.78a.29.29,0,0,1,.21-.09h.08c.1.19.3.71.44.93a1.52,1.52,0,0,0,1.07.5,1,1,0,0,0,.77-.23.69.69,0,0,0,.27-.58.65.65,0,0,0-.14-.44,1.17,1.17,0,0,0-.49-.35c-.21-.1-1-.28-1.22-.43a1.8,1.8,0,0,1-.67-.47,1.42,1.42,0,0,1-.27-.87A1.36,1.36,0,0,1,61,45.47a1.75,1.75,0,0,1,1.14.32,3.63,3.63,0,0,1,.28-.27.26.26,0,0,1,.25.13,5.43,5.43,0,0,0-.08.65c0,.13.08.63.08.71a.47.47,0,0,1-.19.07l-.09,0c-.13-.23-.25-.62-.39-.83a1.1,1.1,0,0,0-1-.41.79.79,0,0,0-.86.71.81.81,0,0,0,.59.71c.2.08.44.17.72.26a5.67,5.67,0,0,1,.76.29A1.3,1.3,0,0,1,63,49,1.55,1.55,0,0,1,61.3,50.48Z"/>
          <path class="cls-1" d="M54.4,57.88c-1.45,0-2.24,0-2.44,0h-.68c-.2,0-.67,0-1.18,0l-.28,0a.12.12,0,0,1,0-.1.71.71,0,0,1,0-.14,1.76,1.76,0,0,0,.73-.15,1.33,1.33,0,0,0,.16-.73c0-.22,0-.47,0-.72s0-.81,0-1.34v-.75c0-.53-.27-.53-.81-.59a.74.74,0,0,1,0-.12s0-.11,0-.13h.27c.18,0,.65,0,1.56,0H54c.11,0,.16,0,.16.11l.06,1.08c-.06,0-.07,0-.13,0H54a2.06,2.06,0,0,0-.72-.83.8.8,0,0,0-.42-.13h-.64a3.94,3.94,0,0,0-.54,0c-.06,0-.05,0-.07.18s0,.34,0,1v.62h.16a2.55,2.55,0,0,0,.55-.06.93.93,0,0,0,.48-.34,1.68,1.68,0,0,0,.11-.4.35.35,0,0,1,.16,0,.24.24,0,0,1,.12,0c0,.2,0,.56,0,1,0,.23,0,.74,0,1a.2.2,0,0,1-.13,0l-.14,0c0-.41-.11-.68-.45-.83a1.25,1.25,0,0,0-.53-.1l-.32,0v1.26a1.71,1.71,0,0,0,.06.56c0,.08.15.25.29.27a2.65,2.65,0,0,0,.44,0h.69a1.26,1.26,0,0,0,.52-.08,2.59,2.59,0,0,0,.76-1,.31.31,0,0,1,.15,0l.14,0v1.27C54.65,57.87,54.57,57.88,54.4,57.88Z"/>
          <path class="cls-1" d="M61.37,53.33c-.49,0-.91.29-.91,1.06v2.46c0,.1,0,.79,0,1.06a.48.48,0,0,1-.2.08s-.07,0-.13-.08L56.8,54.28l0,.74v1.34c0,.11,0,.36,0,.54a.61.61,0,0,0,.24.51,1.16,1.16,0,0,0,.64.21.19.19,0,0,1,0,.11.19.19,0,0,1-.05.12H56.52l-.72,0h-.15a.49.49,0,0,1,0-.11.37.37,0,0,1,0-.13,1.15,1.15,0,0,0,.76-.33,1.47,1.47,0,0,0,.08-.57V55c0-.28,0-.41,0-.69a.85.85,0,0,0-.17-.52,2,2,0,0,0-.23-.24,2.05,2.05,0,0,0-.54-.24l0-.11a.38.38,0,0,1,0-.13h.12c.1,0,.62,0,1,0h.23a.5.5,0,0,1,.14.1l2.5,2.73c.19.21.44.49.57.66v-2c0-.26,0-.45,0-.54a1.45,1.45,0,0,0-.15-.52c-.07-.12-.54-.19-.78-.24a.36.36,0,0,1,0-.14.49.49,0,0,1,0-.11h.14c.23,0,.61,0,.84,0,.58,0,.75,0,1,0h.19a.27.27,0,0,1,0,.12A.23.23,0,0,1,61.37,53.33Z"/>
          <path class="cls-1" d="M77.14,38.34c-.47,0-.91.28-.91,1v2.47c0,.09,0,.79,0,1a.45.45,0,0,1-.19.08S76,43,76,42.91l-3.38-3.63,0,.75,0,1.33c0,.11,0,.36,0,.55a.66.66,0,0,0,.24.51,1.46,1.46,0,0,0,.64.21.17.17,0,0,1,0,.11.31.31,0,0,1,0,.12H72.29l-.7,0h-.16a.52.52,0,0,1,0-.11.23.23,0,0,1,0-.12,1.2,1.2,0,0,0,.75-.33,1.37,1.37,0,0,0,.08-.58V40c0-.27,0-.41,0-.68a.89.89,0,0,0-.17-.52,1.58,1.58,0,0,0-.24-.25,2.73,2.73,0,0,0-.54-.24.89.89,0,0,1,0-.11.5.5,0,0,1,0-.12h.13c.09,0,.61,0,1,0h.23a.65.65,0,0,1,.16.09l2.5,2.73c.19.21.43.49.56.67v-2a4.81,4.81,0,0,0,0-.55,1.1,1.1,0,0,0-.15-.51c-.07-.13-.54-.19-.77-.24a.44.44,0,0,1,0-.15.22.22,0,0,1,0-.1h.14l.84,0h1.22a.23.23,0,0,1,0,.11A.35.35,0,0,1,77.14,38.34Z"/>
          <path class="cls-1" d="M82.11,42.28a2.48,2.48,0,0,1-1.7.72,2.52,2.52,0,0,1-1.68-.68,2.67,2.67,0,0,1,0-3.63A2.4,2.4,0,0,1,80.42,38a2.53,2.53,0,0,1,1.26.36,2.48,2.48,0,0,1,1.17,2.12A2.61,2.61,0,0,1,82.11,42.28Zm-.77-3.49a1.13,1.13,0,0,0-1-.5,1,1,0,0,0-.88.5,2.75,2.75,0,0,0-.44,1.69,2.89,2.89,0,0,0,.42,1.68,1.07,1.07,0,0,0,.94.52,1.11,1.11,0,0,0,1-.65,3.12,3.12,0,0,0,.31-1.53A2.81,2.81,0,0,0,81.34,38.79Z"/>
          <path class="cls-1" d="M88.91,38.35a1,1,0,0,0-.86.57l-1.81,4a.34.34,0,0,1-.15.07s-.13-.07-.16-.19-.27-.71-.75-1.81L84.6,39.7c-.21-.48-.38-.8-.43-.9a.9.9,0,0,0-.76-.45.13.13,0,0,1,0-.12.17.17,0,0,1,0-.11h1.18l1.14,0h.19s0,.07,0,.1a.32.32,0,0,1,0,.13c-.23,0-.72,0-.72.32a.73.73,0,0,0,0,.28l1.19,2.83,1-2.35a1.5,1.5,0,0,0,.13-.62c0-.27-.19-.38-.69-.45a.36.36,0,0,1,0-.11.44.44,0,0,1,0-.13H87c.23,0,.45,0,1,0h.94a.19.19,0,0,1,0,.1S88.94,38.33,88.91,38.35Z"/>
          <path class="cls-1" d="M75.58,47.1h-.14a2.32,2.32,0,0,0-.36-.71,1.1,1.1,0,0,0-.88-.47h-.47V48c0,.33,0,.72,0,1.45,0,.55.27.55.84.63a.22.22,0,0,1,0,.14.17.17,0,0,1,0,.11h-.21l-1.2,0-1.23,0a.21.21,0,0,1,0-.12.69.69,0,0,1,0-.13c.76-.06.84-.2.87-.44s0-.79,0-1.43V46.49a3.27,3.27,0,0,0,0-.58A3.73,3.73,0,0,0,72,46c-.39.14-.65.47-1,1a.36.36,0,0,1-.14,0,.18.18,0,0,1-.11-.05V45.75c0-.11,0-.14.15-.14h.52c.17,0,.87,0,1.75,0,1.14,0,2,0,2.21,0s.2,0,.23,0,0,.11,0,.17V47A.12.12,0,0,1,75.58,47.1Z"/>
          <path class="cls-1" d="M81.31,50.37h-.37c-.25,0-.52,0-.81,0-.45,0-1,0-1.25,0a.17.17,0,0,1,0-.12.43.43,0,0,1,0-.11c.46,0,.65-.1.65-.29a1.72,1.72,0,0,0-.14-.62c-.15-.35-.22-.51-.26-.59s0,0-.13,0H77.48a3,3,0,0,0-.35.91,1.14,1.14,0,0,0,0,.28c0,.15.14.33.67.34a.19.19,0,0,1,0,.13.22.22,0,0,1,0,.11h-.13l-.83,0-1,0a.3.3,0,0,1,0-.1.32.32,0,0,1,0-.12,1,1,0,0,0,.69-.35,7.91,7.91,0,0,0,.61-1.24c.26-.64.58-1.45.73-1.78l.33-.7.25-.5a.3.3,0,0,1,.19-.09.28.28,0,0,1,.21.1,1,1,0,0,1,.11.24c.28.66.5,1.24.84,2.06.18.42.27.68.46,1.11.13.27.21.48.34.72s.47.37.75.44c0,0,0,.07,0,.11A.16.16,0,0,1,81.31,50.37Zm-3-3.79h0a8.28,8.28,0,0,0-.34.77l-.39.92H79C78.87,48,78.5,47.11,78.29,46.58Z"/>
          <path class="cls-1" d="M88.71,50.37l-1.94,0h-.53a.35.35,0,0,1,0-.12.17.17,0,0,1,0-.12,2.12,2.12,0,0,0,.48,0c.19-.08.27-.28.27-.57V46.05h0l-1,2.23c-.11.25-.24.51-.35.78a10,10,0,0,0-.42,1.08.14.14,0,0,1-.16.09c-.06,0-.11,0-.14-.13l-.27-.6L83,46h0v.9l0,2.24c0,.68.35,1,.9,1a.41.41,0,0,1,0,.12.3.3,0,0,1,0,.11H83.7c-.06,0-.42,0-.93,0h-1a.52.52,0,0,1,0-.11.65.65,0,0,1,0-.11,2.42,2.42,0,0,0,.7-.24c.1-.1.18-.3.18-.77V46.66c0-.39,0-.54-.24-.67a1.83,1.83,0,0,0-.63-.13.39.39,0,0,1,0-.13.35.35,0,0,1,0-.13h2a.27.27,0,0,1,.1.13L85.33,49l.26-.64c.22-.52.54-1.3,1-2.15.1-.19.22-.43.29-.55l1.81,0a.18.18,0,0,1,0,.11.31.31,0,0,1,0,.13c-.2,0-.55,0-.71.31-.06.08-.09.17-.09.57V49c0,.89.22,1,.32,1a1.5,1.5,0,0,0,.49.07.27.27,0,0,1,0,.12A.3.3,0,0,1,88.71,50.37Z"/>
          <path class="cls-1" d="M75.47,54.61l-.14,0a2.59,2.59,0,0,0-.36-.71,1.14,1.14,0,0,0-.88-.46h-.47v2.11c0,.33,0,.73,0,1.45,0,.56.27.56.84.63a.22.22,0,0,1,0,.14.14.14,0,0,1,0,.11h-.21l-1.2,0c-.15,0-.88,0-1.23,0a.23.23,0,0,1,0-.13.69.69,0,0,1,0-.13c.76,0,.84-.2.87-.44s0-.79,0-1.43V54a3.39,3.39,0,0,0,0-.58,3.73,3.73,0,0,0-.75.05,1.88,1.88,0,0,0-1,1,.36.36,0,0,1-.14,0,.18.18,0,0,1-.11-.05V53.25c0-.11,0-.14.15-.14h2.26c1.14,0,2,0,2.22,0s.2,0,.23,0,0,.11,0,.18v1.23A.16.16,0,0,1,75.47,54.61Z"/>
          <path class="cls-1" d="M81.41,53.35a1,1,0,0,0-.85.57l-1.81,4a.37.37,0,0,1-.15.06s-.13-.06-.16-.19-.27-.71-.76-1.81l-.57-1.32c-.21-.49-.38-.81-.43-.91a.93.93,0,0,0-.77-.44.15.15,0,0,1,0-.12.19.19,0,0,1,0-.12h.3l.87,0,1.14,0h.19s.06.08.06.11a.32.32,0,0,1,0,.13c-.24,0-.72,0-.72.32a.66.66,0,0,0,0,.27L79,56.77l1-2.36a1.56,1.56,0,0,0,.12-.62c0-.26-.18-.38-.68-.44a.43.43,0,0,1,0-.11.59.59,0,0,1,0-.14h.14c.22,0,.44,0,1,0l.6,0h.34a.17.17,0,0,1,0,.11A.18.18,0,0,1,81.41,53.35Z"/>
          <path class="cls-1" d="M88.81,57.88l-1.93,0h-.54a.25.25,0,0,1,0-.12.17.17,0,0,1,0-.12,2.93,2.93,0,0,0,.49,0c.18-.09.26-.28.26-.57V54.2s0-.5,0-.64h0l-1,2.23c-.12.24-.24.5-.36.77q-.33.78-.42,1.08c0,.09-.1.09-.16.09s-.1,0-.14-.13c-.12-.29-.21-.48-.26-.6l-1.6-3.51h0v.9l0,2.24c0,.68.35,1,.91,1a.35.35,0,0,1,0,.12.27.27,0,0,1,0,.12H83.8c-.06,0-.41,0-.91,0h-1a.2.2,0,0,1,0-.11.3.3,0,0,1,0-.11,2.52,2.52,0,0,0,.7-.24,1.19,1.19,0,0,0,.17-.77V54.16c0-.39,0-.54-.24-.67a2.09,2.09,0,0,0-.62-.13.22.22,0,0,1,0-.13.27.27,0,0,1,0-.13l.84,0h1.17a.19.19,0,0,1,.09.12l1.43,3.24.27-.65a23,23,0,0,1,1-2.15c.09-.19.22-.42.29-.55l1.8,0a.2.2,0,0,1,.06.12.25.25,0,0,1,0,.12c-.19,0-.54,0-.7.31-.06.09-.1.18-.1.57v2.31c0,.88.22,1,.33,1a1.7,1.7,0,0,0,.48.06.22.22,0,0,1,0,.13C88.85,57.83,88.83,57.83,88.81,57.88Z"/>
        </g>
        <path class="cls-1" d="M134.65,27.91l-.2-2.26-2.17.66A55.72,55.72,0,0,1,116,28.72,54.82,54.82,0,0,1,69.19,2.62L67.62,0,66,2.62a54.81,54.81,0,0,1-46.83,26.1A55.68,55.68,0,0,1,3,26.32L.81,25.66.62,27.92A160,160,0,0,0,3.4,74.73,162.27,162.27,0,0,0,20.82,121a165.83,165.83,0,0,0,14.54,21.69,168.07,168.07,0,0,0,31.12,30.28l1.1.82,1.11-.82a167.7,167.7,0,0,0,31.18-30.19,164.84,164.84,0,0,0,14.54-21.66A162.59,162.59,0,0,0,131.32,77l.45-2.23A160.93,160.93,0,0,0,134.65,27.91ZM95.77,40.24h2.71v5.3H95.77Zm0,13.88h2.71v5.31H95.77ZM68.32,34.62c0-.07,1.13-1.93,4.59-1.93l5.24.74,6.89.91c3.35,0,5-.52,6-1V62.17a16.47,16.47,0,0,1-6,.89l-6.65-.88-5.48-.77a6.87,6.87,0,0,0-4.59,1.45Zm-23.6-1.2c.91.45,2.54.93,5.75.93l6.9-.91,5.23-.75c3.44,0,4.54,1.84,4.59,1.93V62.87a6.91,6.91,0,0,0-4.64-1.46l-5.47.77-6.61.88c-4.84,0-5.84-1.17-5.86-1.18S44.71,35.35,44.72,33.42Zm-3.94,3.5,2.82-.59V62.22c.27.59,1.46,2,6.87,2l6.85-.9,5.23-.75c3.5,0,4.6,1.86,4.65,1.94l.16-.09h.81l.15.08c0-.07,1.13-1.93,4.59-1.93l5.24.74,6.89.91c5.49,0,6.85-1.44,7-1.6l.1-26.39,2.5.69V65.5a77.44,77.44,0,0,1-9.92.77,125,125,0,0,1-13.23-.93l-.64-.09v1.94a9.47,9.47,0,0,1-3.2.59,8.83,8.83,0,0,1-3.08-.58v-2l-.64.09a125.41,125.41,0,0,1-13.21.93,77.33,77.33,0,0,1-9.94-.77ZM37,40.24h2.66v5.3H37Zm0,13.88h2.66v5.31H37ZM67.59,169a164.89,164.89,0,0,1-29.34-28.67l-.1-.14L67.6,111.59l29.51,28.69a1,1,0,0,0-.12.17A164.86,164.86,0,0,1,67.59,169Zm60.13-92.87a158.76,158.76,0,0,1-16.29,42.66L67.6,76.68,23.82,118.75A159,159,0,0,1,7.1,74.35h121Z"/>
      </g>
    </g>
  </g>
</svg>
